<svg version="1.1" id="Layer_1" xmlns="http://www.w3.org/2000/svg" xmlns:xlink="http://www.w3.org/1999/xlink" x="0px" y="0px"
	 width="100%" viewBox="0 0 674 655" enable-background="new 0 0 674 655" xml:space="preserve">
<path fill="#46B53F" opacity="1.000000" stroke="none" 
	d="
M1.000000,589.000000 
	C1.000000,421.308411 1.000000,253.616852 1.272317,85.219452 
	C2.650764,81.424500 3.882970,78.373566 4.832914,75.237137 
	C6.193355,70.745377 7.347620,66.191170 8.722404,61.770744 
	C8.854890,61.877861 8.559262,61.708416 8.949478,61.683441 
	C9.870242,60.070663 10.400790,58.482864 10.947014,56.938095 
	C10.962690,56.981125 10.881769,56.938217 11.246141,56.908051 
	C11.877482,56.117580 12.144452,55.357281 12.450826,54.618046 
	C12.490229,54.639114 12.498969,54.550179 12.892824,54.603943 
	C16.486345,53.787121 17.681984,51.828911 16.736771,48.657402 
	C16.907879,48.698849 16.579556,48.571617 16.943512,48.675484 
	C18.751295,46.406971 20.195122,44.034592 21.742279,41.632587 
	C21.845610,41.602959 21.631573,41.624477 22.035690,41.742508 
	C25.459425,41.859898 26.553885,40.528099 25.408987,37.550556 
	C25.447100,37.479572 25.527435,37.339882 25.880337,37.517265 
	C29.521240,35.837009 33.647373,34.827747 34.370186,29.972328 
	C36.031487,28.496170 37.334053,27.058107 38.691795,25.635296 
	C38.746975,25.650551 38.685741,25.747297 38.973721,25.724298 
	C39.475105,25.400610 39.688515,25.099920 39.908863,24.848356 
	C39.915802,24.897480 39.826366,24.854507 40.228123,24.899563 
	C42.745785,24.233362 45.103172,23.900673 46.929619,22.735628 
	C51.354164,19.913321 55.531364,16.703253 59.844505,13.691597 
	C59.880760,13.733735 59.770653,13.749120 60.150574,13.829431 
	C61.944073,13.135656 63.357655,12.361572 64.815109,11.611612 
	C64.858986,11.635736 64.790428,11.708735 65.200668,11.804844 
	C68.055473,10.991505 70.500023,10.082055 73.347244,9.088850 
	C82.848907,7.397142 91.947906,5.789192 101.219696,4.406714 
	C101.937180,4.770144 102.481865,4.908103 103.324234,5.332078 
	C105.101135,5.745643 106.580330,5.984742 108.059563,5.984900 
	C260.635834,6.001306 413.212128,6.002892 565.788391,5.959387 
	C567.524170,5.958892 569.259766,5.358898 570.993652,5.024908 
	C570.991821,5.011064 570.983337,4.984447 571.408691,4.997372 
	C581.259216,6.317361 590.684387,7.624427 600.069092,8.944824 
	C600.028625,8.958157 600.017090,8.873688 600.229736,9.179626 
	C601.662842,9.635265 602.883362,9.784966 604.064087,9.947574 
	C604.024231,9.960479 604.012207,9.877605 604.232239,10.187732 
	C605.439636,10.622323 606.426941,10.746788 607.561096,10.821511 
	C607.707886,10.771770 607.984436,10.911852 608.165894,11.186634 
	C608.971375,11.532800 609.595459,11.604185 610.233093,11.616018 
	C610.246704,11.556467 610.367310,11.536739 610.361023,11.912325 
	C616.351440,15.532240 622.300110,18.870285 628.368286,21.975002 
	C630.810669,23.224632 633.514893,23.962729 636.060425,24.959776 
	C636.020996,24.985910 636.059875,24.899632 636.075073,25.280502 
	C636.640503,28.561403 638.464294,29.420420 641.142212,28.868469 
	C641.098755,28.896126 641.106812,28.793394 641.187134,29.064980 
	C641.586243,29.514332 641.905029,29.692102 642.171875,29.862005 
	C642.119995,29.854139 642.182556,29.769810 642.151001,30.142029 
	C643.541504,31.505823 644.963501,32.497398 646.372192,33.520157 
	C646.358887,33.551338 646.406555,33.599556 646.387817,33.897919 
	C646.709412,34.287991 647.049744,34.379700 647.412476,34.510414 
	C647.434875,34.549423 647.522095,34.527332 647.466675,34.851662 
	C647.959045,35.442028 648.506714,35.708065 649.026733,35.985001 
	C648.999023,35.995895 649.026733,35.943172 649.045166,36.254002 
	C649.640320,37.042774 650.217041,37.520718 650.906738,38.340981 
	C652.430969,40.630711 653.579041,42.856758 655.297241,44.479145 
	C664.635376,53.296757 669.110413,64.737610 673.062988,76.513420 
	C673.378418,77.453125 674.339111,78.176247 675.000000,79.000015 
	C675.000000,248.358231 675.000000,417.716461 674.675781,587.720825 
	C673.891785,589.548584 673.358643,590.707581 672.987000,591.916260 
	C672.067871,594.906311 672.144043,599.382324 670.163208,600.629700 
	C665.490784,603.571960 667.161377,606.687622 668.180908,610.093262 
	C668.176697,610.005188 668.220520,610.176147 667.859497,610.161682 
	C664.715332,615.162659 661.932190,620.178101 659.117615,625.138428 
	C659.086182,625.083374 659.200684,625.137817 658.821167,625.146667 
	C657.994934,626.190918 657.548340,627.226379 657.059143,628.464478 
	C656.894043,628.950134 656.679138,629.104370 656.018555,629.200317 
	C654.633484,630.987793 653.601562,632.704651 652.528442,634.409668 
	C652.487244,634.397705 652.448853,634.474487 652.144775,634.435547 
	C651.763184,634.745422 651.685669,635.094116 651.560974,635.459229 
	C651.513855,635.475525 651.560303,635.563843 651.219177,635.507935 
	C650.641907,636.034607 650.405762,636.617126 650.109436,637.116577 
	C650.049255,637.033447 650.201843,637.170715 649.822388,637.122437 
	C647.546326,639.217346 645.649658,641.360474 643.673523,643.544556 
	C643.594116,643.585449 643.426270,643.646606 643.139893,643.543945 
	C642.763794,643.777161 642.674011,644.112976 642.538574,644.496277 
	C642.492859,644.543701 642.441040,644.664795 642.093872,644.481934 
	C635.529602,648.036377 629.311646,651.772278 623.103333,655.524109 
	C623.007935,655.581726 623.031799,655.836975 623.000000,656.000000 
	C432.641754,656.000000 242.283524,656.000000 51.304821,655.692810 
	C48.322559,654.422913 45.960754,653.460205 43.762802,652.251160 
	C43.819786,652.169067 43.712917,652.333252 43.627132,652.112061 
	C42.621521,651.346802 41.594830,650.966919 40.585304,650.582764 
	C40.602474,650.578491 40.594101,650.544189 40.592041,650.184814 
	C39.735508,649.545410 38.881035,649.265503 38.014629,648.994263 
	C38.002697,649.002991 38.012547,648.976318 37.971748,648.652832 
	C37.449715,648.061829 36.968483,647.794189 36.518929,647.519775 
	C36.550606,647.512939 36.471146,647.544922 36.551670,647.174927 
	C35.249096,643.942383 33.497032,641.621521 29.859383,642.128967 
	C29.916615,642.104736 29.854790,642.212585 29.876026,641.836670 
	C29.353321,636.484192 25.239321,635.166138 21.706108,633.162109 
	C21.813316,632.961426 21.620863,633.372620 21.724968,633.040588 
	C21.551924,632.136597 21.274775,631.564636 20.814857,630.741943 
	C20.042830,630.359680 19.453569,630.228210 18.912975,630.061646 
	C18.961643,630.026550 18.905975,630.132812 18.908352,629.795532 
	C18.452099,629.090759 17.993473,628.723206 17.711584,628.173950 
	C17.777622,628.119873 17.666920,628.247498 17.661840,627.963989 
	C17.563629,623.043030 16.281420,619.103271 12.231330,616.477966 
	C11.625684,616.085449 11.288075,615.165405 10.994314,614.423035 
	C7.644058,605.956116 4.326378,597.476318 1.000000,589.000000 
M330.511627,227.327332 
	C330.328339,227.875534 330.145050,228.423737 329.540680,229.198654 
	C329.277313,229.395462 329.087524,229.647629 328.271179,230.062500 
	C327.495667,231.355972 326.720184,232.649445 325.218353,233.996613 
	C324.477142,234.995865 323.735931,235.995132 322.395691,237.291351 
	C319.246033,241.510025 316.096375,245.728683 312.288391,250.086609 
	C311.809998,251.013733 311.331635,251.940857 310.069183,252.946548 
	C306.825073,252.828522 306.789215,254.865753 307.126587,257.145966 
	C307.126587,257.145966 307.222290,257.113495 306.626740,257.347656 
	C306.461090,257.728241 306.295441,258.108856 305.669525,258.926453 
	C303.177368,261.948975 300.685211,264.971497 297.448883,268.059998 
	C296.331970,269.748566 295.215027,271.437103 294.056915,273.013489 
	C294.056915,273.013489 294.143188,273.096191 293.402161,273.095703 
	C292.750549,274.185486 292.098907,275.275269 291.365875,276.349121 
	C291.365875,276.349121 291.374786,276.431549 290.621033,276.232666 
	C290.130951,277.210571 289.640869,278.188446 288.992798,279.030914 
	C288.992798,279.030914 289.163300,279.149231 288.414490,279.059998 
	C281.197388,280.351898 281.507446,287.714844 277.554565,292.209106 
	C277.284393,292.407745 277.096039,292.666046 276.506775,293.318726 
	C276.323151,293.863708 276.139526,294.408691 275.286835,295.085205 
	C274.822449,296.023407 274.358063,296.961578 273.177277,297.950287 
	C271.593933,298.608582 270.010559,299.266846 268.121094,300.052368 
	C267.940521,299.727905 267.468140,298.879120 267.004700,297.089233 
	C267.004456,247.652298 267.022583,198.215332 266.934753,148.778549 
	C266.931366,146.860870 265.911346,144.944977 264.974701,142.511124 
	C263.363892,137.489624 259.914581,134.356430 254.760330,132.075714 
	C253.162903,131.705200 251.565491,131.334686 249.380249,130.383438 
	C248.736649,130.257599 248.093155,130.022491 247.449417,130.021774 
	C228.198761,130.000244 208.948059,129.984116 189.697556,130.041641 
	C188.469513,130.045303 187.243256,130.648590 185.283920,131.005020 
	C184.196884,131.623260 183.109848,132.241501 181.495560,133.320374 
	C178.517868,136.127182 175.540176,138.934006 172.100388,141.189438 
	C171.733566,143.181366 171.046448,145.173187 171.045685,147.165253 
	C170.996292,275.160156 171.002594,403.155090 171.034790,531.970459 
	C171.147949,540.003174 176.329590,544.845825 185.583145,545.574829 
	C191.014633,545.710999 196.448044,545.999023 201.876953,545.930542 
	C205.583893,545.883789 209.284576,545.339417 213.634888,544.986755 
	C214.064575,544.990051 214.494278,544.993408 215.870819,544.995911 
	C228.180954,544.995483 240.491898,545.062439 252.800308,544.917419 
	C254.514801,544.897217 256.217010,543.834229 258.244934,542.732910 
	C260.618622,539.813171 262.992310,536.893372 266.168823,533.596924 
	C266.447144,531.675720 266.964508,529.754883 266.968079,527.833191 
	C267.023651,497.856750 267.012817,467.880157 267.012756,437.075775 
	C268.505707,431.366180 270.017883,425.661438 271.468109,419.941010 
	C271.656555,419.197754 271.525879,418.373627 271.551025,417.617188 
	C271.551025,417.617188 271.582336,417.616577 272.193085,417.626923 
	C272.311920,417.276123 272.430756,416.925323 272.503876,416.887146 
	C272.503876,416.887146 272.520172,416.570404 273.281860,416.643890 
	C279.297974,414.066254 281.440521,407.738861 285.813507,403.520142 
	C290.264160,399.226501 293.622223,393.800262 297.770569,388.469208 
	C299.939514,391.384308 301.489014,393.308716 302.868591,395.348114 
	C309.224243,404.743530 315.439697,414.236023 321.947540,423.524078 
	C323.054535,425.104034 325.342316,425.856659 327.253723,427.117523 
	C327.253723,427.117523 327.239258,427.327942 327.112061,428.159912 
	C329.841003,434.092987 332.198883,440.287292 338.096069,443.928162 
	C338.096069,443.928162 338.119507,443.823608 338.098511,444.575836 
	C339.435547,447.366760 340.451843,450.376434 342.175354,452.903809 
	C345.955780,458.447632 350.175262,463.689636 354.067657,469.160034 
	C359.840515,477.273254 365.537750,485.441803 371.152985,493.664764 
	C372.861176,496.166229 373.949371,499.104431 375.741180,501.532990 
	C382.085266,510.131531 388.442749,518.730896 395.123199,527.067017 
	C400.112396,533.292847 401.817627,542.506165 411.975891,544.968811 
	C439.725464,544.978333 467.475037,545.003174 495.224518,544.957153 
	C496.789703,544.954529 498.353882,544.369507 500.549927,543.700073 
	C506.491913,542.560547 508.509399,538.326599 509.551636,532.510681 
	C506.810822,522.841431 501.258087,514.517578 494.977478,507.130951 
	C489.831299,501.078491 488.284485,492.700806 481.515411,487.939697 
	C480.770630,487.415833 480.487091,486.260040 479.935760,485.433289 
	C477.590454,481.916473 475.256378,478.391449 472.858002,474.910919 
	C470.326599,471.237366 467.585968,467.700745 465.188782,463.943512 
	C461.279541,457.816284 457.742401,451.447540 453.727997,445.393036 
	C450.820190,441.007568 447.127533,437.139984 444.250427,432.737213 
	C436.493988,420.867676 429.020630,408.813263 421.295532,396.922791 
	C420.835327,396.214386 419.150330,396.301758 417.717316,395.387726 
	C416.133728,392.751160 414.550171,390.114594 412.964050,386.807343 
	C410.843048,383.173248 408.884705,379.431885 406.571136,375.924835 
	C399.121552,364.632416 391.598846,353.386627 383.935242,342.239075 
	C383.014221,340.899384 381.055450,340.273071 379.640930,338.999786 
	C379.640930,338.999786 379.604675,339.318848 379.845398,338.559052 
	C377.146606,334.125519 374.712280,329.501312 371.686493,325.303497 
	C367.249756,319.148315 367.209595,317.877228 371.872375,311.504364 
	C374.109039,308.447388 375.788239,304.982513 377.788818,301.803955 
	C377.788818,301.803955 377.666962,301.789154 378.370178,301.698151 
	C379.801147,300.578186 381.508728,299.681061 382.618988,298.302765 
	C391.011078,287.884735 399.282990,277.369934 407.598175,266.889893 
	C416.350128,255.859283 424.997772,244.743301 433.908173,233.842087 
	C438.748291,227.920547 444.368622,222.620575 449.019501,216.565903 
	C452.485443,212.053772 454.960693,206.780670 457.948730,201.973694 
	C457.948730,201.973694 457.837585,201.879089 458.554871,201.901230 
	C459.844879,200.913712 461.377930,200.126419 462.384277,198.905151 
	C467.661621,192.500580 472.735504,185.928085 478.027802,179.536240 
	C480.399933,176.671295 483.323456,174.256104 485.634918,171.349091 
	C490.825043,164.821808 495.222809,157.565414 500.989624,151.621078 
	C508.033234,144.360687 507.228394,135.661179 497.069550,131.006119 
	C480.460052,131.004288 463.850433,130.974976 447.241211,131.041382 
	C445.506561,131.048325 443.774139,131.621704 441.521393,131.971817 
	C441.348022,131.980057 441.174622,131.988297 440.063782,131.982529 
	C430.362885,131.996078 420.662018,132.009613 410.395752,132.062759 
	C409.920807,132.756912 409.445892,133.451080 408.475647,134.735916 
	C407.432037,135.479797 406.388397,136.223679 404.704010,137.001007 
	C403.848145,137.459473 402.767761,137.722824 402.172485,138.407776 
	C398.035767,143.167618 393.830017,147.884354 389.986420,152.876694 
	C387.045288,156.696854 384.602783,160.900864 381.178955,164.999420 
	C380.478546,166.368652 379.778137,167.737900 379.027771,169.040756 
	C379.027771,169.040756 379.110748,169.036865 378.591400,169.284943 
	C378.422577,169.619781 378.253784,169.954620 377.889771,170.919250 
	C375.290588,174.298569 372.691437,177.677887 370.005768,181.029007 
	C370.005768,181.029007 370.063080,181.099640 369.453033,181.357910 
	C366.691162,184.921417 363.929291,188.484924 360.902100,192.306259 
	C360.902100,192.306259 360.792786,192.659683 360.165527,192.910263 
	C355.456390,198.267258 350.747284,203.624252 345.363281,209.083237 
	C344.551453,210.363678 343.739624,211.644119 342.234192,213.045807 
	C341.136536,214.684937 340.038879,216.324066 338.527405,218.197372 
	C338.269287,218.397507 338.083191,218.650620 337.280182,219.052200 
	C335.520050,221.369003 333.759918,223.685806 331.562866,226.218002 
	C331.289856,226.416092 331.102631,226.675964 330.511627,227.327332 
z"/>
<path fill="#FCFDFE" opacity="1.000000" stroke="none" 
	d="
M582.000000,1.000006 
	C612.917114,1.000000 643.834167,1.000000 675.000000,1.000000 
	C675.000000,24.353640 675.000000,47.708160 674.637573,71.466660 
	C671.911255,67.310356 669.118774,62.916851 667.266846,58.157364 
	C662.441528,45.756382 652.923645,36.935978 644.269531,27.512400 
	C642.047974,25.093380 639.171509,21.835245 634.768188,23.304470 
	C634.778870,23.288025 634.764099,23.255827 634.817627,22.886211 
	C632.773010,18.387974 629.561523,16.356945 624.812988,17.196545 
	C624.794922,17.204857 624.760620,17.226088 624.801147,16.859091 
	C624.132874,15.687341 623.578796,14.498857 622.690063,14.140570 
	C617.223145,11.936797 611.734802,9.758222 606.146362,7.892512 
	C601.564941,6.362985 596.827759,5.303919 592.172302,3.991219 
	C588.770813,3.032103 585.390015,1.999733 582.000000,1.000006 
z"/>
<path fill="#FCFDFE" opacity="1.000000" stroke="none" 
	d="
M1.000000,67.000000 
	C1.000000,45.061470 1.000000,23.122942 1.000000,1.000000 
	C31.020643,1.000000 61.041664,1.000000 91.455978,1.382928 
	C91.355850,2.149658 90.878181,2.845463 90.366699,2.871276 
	C79.726700,3.408251 69.786018,6.841831 59.867504,10.280597 
	C56.666050,11.390545 53.519009,12.835464 50.608700,14.566901 
	C45.818039,17.417025 41.136368,20.483263 36.641693,23.776331 
	C35.418816,24.672283 35.030270,26.707005 34.253723,28.198145 
	C34.248638,28.177202 34.229687,28.204447 33.828995,28.132957 
	C28.870491,27.778345 27.543316,30.646889 27.134651,34.650002 
	C26.930286,35.079807 26.710678,35.203030 26.034962,35.147812 
	C24.463743,35.544415 22.836111,35.656944 22.173330,36.514858 
	C17.430670,42.653839 11.916220,48.171654 8.801902,55.590271 
	C7.054880,59.751858 3.655119,63.219631 1.000000,67.000000 
z"/>
<path fill="#E8FDE7" opacity="1.000000" stroke="none" 
	d="
M34.258808,28.219088 
	C35.030270,26.707005 35.418816,24.672283 36.641693,23.776331 
	C41.136368,20.483263 45.818039,17.417025 50.608700,14.566901 
	C53.519009,12.835464 56.666050,11.390545 59.867504,10.280597 
	C69.786018,6.841831 79.726700,3.408251 90.366699,2.871276 
	C90.878181,2.845463 91.355850,2.149658 91.924637,1.382928 
	C92.444443,1.000000 92.888893,1.000000 93.699455,1.300041 
	C94.477158,1.917860 94.888748,2.235639 95.300331,2.553416 
	C95.533554,2.035609 95.766777,1.517804 96.000000,1.000000 
	C97.714355,1.000000 99.428719,1.000000 101.618317,1.333460 
	C103.062378,1.444613 104.031189,1.222306 105.000000,0.999999 
	C259.020905,1.000000 413.041779,1.000000 567.578430,1.333558 
	C569.062805,1.444744 570.031372,1.222373 571.000000,1.000001 
	C572.066711,1.000000 573.133362,1.000000 574.791748,1.260477 
	C576.266174,2.313018 577.148987,3.105082 577.591125,3.941375 
	C575.092896,4.032163 573.035217,4.078722 570.517822,4.062728 
	C438.191772,3.988741 306.325531,3.966174 174.459274,3.975874 
	C149.988480,3.977674 125.517693,4.109453 101.046898,4.181243 
	C91.947906,5.789192 82.848907,7.397142 72.982025,9.006660 
	C69.739563,9.908397 67.264992,10.808567 64.790428,11.708736 
	C64.790428,11.708735 64.858986,11.635736 64.462540,11.636974 
	C62.634274,12.341847 61.202465,13.045484 59.770653,13.749120 
	C59.770653,13.749120 59.880760,13.733735 59.474152,13.722503 
	C52.653820,17.425684 46.240093,21.140097 39.826366,24.854507 
	C39.826366,24.854507 39.915802,24.897480 39.633389,24.903427 
	C39.129230,25.188683 38.907486,25.467989 38.685741,25.747297 
	C38.685741,25.747297 38.746975,25.650551 38.383774,25.718239 
	C36.766651,26.596981 35.512730,27.408033 34.258808,28.219088 
z"/>
<path fill="#F7FCF8" opacity="1.000000" stroke="none" 
	d="
M656.371765,629.129761 
	C656.679138,629.104370 656.894043,628.950134 657.364746,628.326660 
	C658.208740,627.036743 658.704712,626.087280 659.200684,625.137817 
	C659.200684,625.137817 659.086182,625.083374 659.439941,625.029053 
	C662.602661,620.041870 665.411560,615.109009 668.220520,610.176147 
	C668.220520,610.176147 668.176697,610.005188 668.472412,609.889771 
	C670.845459,604.516296 672.922729,599.258118 675.000000,594.000000 
	C675.000000,614.583374 675.000000,635.166748 675.000000,656.000000 
	C659.646667,656.000000 644.291992,656.000000 628.541138,655.661865 
	C632.910339,651.770752 637.675659,648.217773 642.441040,644.664795 
	C642.441040,644.664795 642.492859,644.543701 642.738159,644.438049 
	C643.245300,644.177612 643.392883,643.949036 643.426270,643.646606 
	C643.426270,643.646606 643.594116,643.585449 643.954285,643.422913 
	C646.276917,641.230469 648.239380,639.200562 650.201843,637.170715 
	C650.201843,637.170715 650.049255,637.033447 650.369995,637.002441 
	C650.980652,636.502197 651.270447,636.033020 651.560303,635.563843 
	C651.560303,635.563843 651.513855,635.475525 651.778687,635.380493 
	C652.321411,635.086487 652.456482,634.816162 652.448853,634.474487 
	C652.448853,634.474487 652.487244,634.397705 652.816406,634.264526 
	C654.220947,632.464172 655.296387,630.796997 656.371765,629.129761 
z"/>
<path fill="#F7FCF8" opacity="1.000000" stroke="none" 
	d="
M47.000000,656.000000 
	C31.731455,656.000000 16.462910,656.000000 1.000000,656.000000 
	C1.000000,636.979553 1.000000,617.958435 1.355653,598.575745 
	C6.992945,608.267822 12.274584,618.321411 17.556221,628.375061 
	C17.666920,628.247498 17.777622,628.119873 17.776512,628.464478 
	C18.078459,629.335510 18.492220,629.734131 18.905979,630.132812 
	C18.905975,630.132812 18.961643,630.026550 19.012806,630.362366 
	C19.634010,631.304749 20.204050,631.911316 20.843243,632.723633 
	C21.068647,633.204834 21.304804,633.352600 21.620863,633.372620 
	C21.620863,633.372620 21.813316,632.961426 21.789291,633.486450 
	C24.461771,636.745239 27.158276,639.478882 29.854786,642.212585 
	C29.854790,642.212585 29.916615,642.104736 30.000553,642.437988 
	C32.213379,644.362488 34.342266,645.953674 36.471149,647.544922 
	C36.471146,647.544922 36.550606,647.512939 36.615440,647.777771 
	C37.124367,648.353821 37.568455,648.665100 38.012543,648.976318 
	C38.012547,648.976318 38.002697,649.002991 38.183571,649.260132 
	C39.107658,649.859619 39.850876,650.201904 40.594097,650.544189 
	C40.594101,650.544189 40.602474,650.578491 40.733910,650.848145 
	C41.778912,651.577637 42.692482,652.037537 43.606052,652.497375 
	C43.712917,652.333252 43.819786,652.169067 43.922176,652.516846 
	C44.945129,654.019165 45.972565,655.009583 47.000000,656.000000 
z"/>
<path fill="#E8FDE7" opacity="1.000000" stroke="none" 
	d="
M634.757507,23.320915 
	C639.171509,21.835245 642.047974,25.093380 644.269531,27.512400 
	C652.923645,36.935978 662.441528,45.756382 667.266846,58.157364 
	C669.118774,62.916851 671.911255,67.310356 674.637573,71.935318 
	C675.000000,72.444443 675.000000,72.888893 674.840332,73.762207 
	C674.787109,74.460709 674.893555,74.730347 675.000000,74.999992 
	C675.000000,76.066673 675.000000,77.133339 675.000000,78.600021 
	C674.339111,78.176247 673.378418,77.453125 673.062988,76.513420 
	C669.110413,64.737610 664.635376,53.296757 655.297241,44.479145 
	C653.579041,42.856758 652.430969,40.630711 650.872803,38.056892 
	C650.159546,36.934711 649.593140,36.438942 649.026733,35.943169 
	C649.026733,35.943172 648.999023,35.995895 648.934265,35.717163 
	C648.420349,35.134731 647.971252,34.831028 647.522095,34.527328 
	C647.522095,34.527332 647.434875,34.549423 647.337769,34.286888 
	C647.027893,33.754742 646.749878,33.613144 646.406555,33.599556 
	C646.406555,33.599556 646.358887,33.551338 646.232788,33.247417 
	C644.798706,31.885599 643.490601,30.827702 642.182556,29.769806 
	C642.182556,29.769810 642.119995,29.854139 642.081177,29.596394 
	C641.730530,29.156898 641.418701,28.975147 641.106812,28.793396 
	C641.106812,28.793394 641.098755,28.896126 640.988770,28.578707 
	C639.272461,27.140739 637.666199,26.020189 636.059875,24.899635 
	C636.059875,24.899632 636.020996,24.985910 635.935608,24.723803 
	C635.485962,24.081434 635.121765,23.701174 634.757507,23.320915 
z"/>
<path fill="#E8FDE7" opacity="1.000000" stroke="none" 
	d="
M1.000000,67.333328 
	C3.655119,63.219631 7.054880,59.751858 8.801902,55.590271 
	C11.916220,48.171654 17.430670,42.653839 22.173330,36.514858 
	C22.836111,35.656944 24.463743,35.544415 25.949078,35.431808 
	C26.011421,36.297806 25.769428,36.818844 25.527435,37.339882 
	C25.527435,37.339882 25.447100,37.479572 25.126606,37.629459 
	C23.747934,39.061058 22.689753,40.342766 21.631573,41.624477 
	C21.631573,41.624477 21.845610,41.602959 21.444658,41.765476 
	C19.555656,44.142536 18.067606,46.357075 16.579556,48.571617 
	C16.579556,48.571617 16.907879,48.698849 16.425470,48.756721 
	C14.795031,50.726452 13.646999,52.638317 12.498968,54.550179 
	C12.498969,54.550179 12.490229,54.639114 12.192822,54.739632 
	C11.557533,55.539501 11.219651,56.238861 10.881769,56.938217 
	C10.881769,56.938217 10.962690,56.981125 10.676828,57.151924 
	C9.780398,58.784618 9.169830,60.246517 8.559262,61.708416 
	C8.559262,61.708416 8.854890,61.877861 8.431656,61.934479 
	C5.672281,67.660736 3.336141,73.330368 1.000000,79.000000 
	C1.000000,76.299988 1.000000,73.599968 1.160947,70.353485 
	C1.214597,69.538017 1.107299,69.269005 1.000001,69.000000 
	C1.000000,68.555557 1.000000,68.111107 1.000000,67.333328 
z"/>
<path fill="#E8FDE7" opacity="1.000000" stroke="none" 
	d="
M581.666687,1.000006 
	C585.390015,1.999733 588.770813,3.032103 592.172302,3.991219 
	C596.827759,5.303919 601.564941,6.362985 606.146362,7.892512 
	C611.734802,9.758222 617.223145,11.936797 622.690063,14.140570 
	C623.578796,14.498857 624.132874,15.687341 624.446411,16.812897 
	C619.489807,15.268046 614.928589,13.402392 610.367310,11.536739 
	C610.367310,11.536739 610.246704,11.556467 610.047729,11.357688 
	C609.227295,11.076557 608.605896,10.994205 607.984436,10.911853 
	C607.984436,10.911852 607.707886,10.771770 607.318237,10.534327 
	C605.956482,10.157125 604.984375,10.017365 604.012207,9.877604 
	C604.012207,9.877605 604.024231,9.960479 603.866821,9.627819 
	C602.478638,9.154671 601.247864,9.014180 600.017090,8.873690 
	C600.017090,8.873688 600.028625,8.958157 599.873901,8.623212 
	C593.122314,6.931961 586.525513,5.575655 579.940430,3.816913 
	C579.968079,2.609651 579.984070,1.804826 580.000000,1.000000 
	C580.444458,1.000000 580.888916,1.000000 581.666687,1.000006 
z"/>
<path fill="#509E4A" opacity="1.000000" stroke="none" 
	d="
M17.661842,627.963989 
	C12.274584,618.321411 6.992945,608.267822 1.355653,598.107056 
	C1.000000,595.299988 1.000000,592.599976 1.000000,589.449951 
	C4.326378,597.476318 7.644058,605.956116 10.994314,614.423035 
	C11.288075,615.165405 11.625684,616.085449 12.231330,616.477966 
	C16.281420,619.103271 17.563629,623.043030 17.661842,627.963989 
z"/>
<path fill="#509E4A" opacity="1.000000" stroke="none" 
	d="
M675.000000,593.571533 
	C672.922729,599.258118 670.845459,604.516296 668.476624,609.977905 
	C667.161377,606.687622 665.490784,603.571960 670.163208,600.629700 
	C672.144043,599.382324 672.067871,594.906311 672.987000,591.916260 
	C673.358643,590.707581 673.891785,589.548584 674.675781,588.183472 
	C675.000000,589.714355 675.000000,591.428711 675.000000,593.571533 
z"/>
<path fill="#509E4A" opacity="1.000000" stroke="none" 
	d="
M642.093872,644.481934 
	C637.675659,648.217773 632.910339,651.770752 628.072510,655.661865 
	C626.611084,656.000000 625.222229,656.000000 623.416626,656.000000 
	C623.031799,655.836975 623.007935,655.581726 623.103333,655.524109 
	C629.311646,651.772278 635.529602,648.036377 642.093872,644.481934 
z"/>
<path fill="#479743" opacity="1.000000" stroke="none" 
	d="
M1.000000,79.428467 
	C3.336141,73.330368 5.672281,67.660736 8.299170,61.827362 
	C7.347620,66.191170 6.193355,70.745377 4.832914,75.237137 
	C3.882970,78.373566 2.650764,81.424500 1.272317,84.756813 
	C1.000000,83.285645 1.000000,81.571281 1.000000,79.428467 
z"/>
<path fill="#479743" opacity="1.000000" stroke="none" 
	d="
M47.399994,656.000000 
	C45.972565,655.009583 44.945129,654.019165 43.758324,652.763062 
	C45.960754,653.460205 48.322559,654.422913 50.842182,655.692810 
	C49.933331,656.000000 48.866661,656.000000 47.399994,656.000000 
z"/>
<path fill="#FCFDFE" opacity="1.000000" stroke="none" 
	d="
M579.583374,1.000000 
	C579.984070,1.804826 579.968079,2.609651 579.609558,3.875006 
	C578.855225,4.189401 578.443481,4.043267 578.031738,3.897140 
	C577.148987,3.105082 576.266174,2.313018 575.191711,1.260477 
	C576.388916,1.000000 577.777771,1.000000 579.583374,1.000000 
z"/>
<path fill="#FCFDFE" opacity="1.000000" stroke="none" 
	d="
M570.625000,1.000001 
	C570.031372,1.222373 569.062805,1.444744 568.047119,1.333558 
	C568.750000,1.000000 569.500000,1.000000 570.625000,1.000001 
z"/>
<path fill="#FCFDFE" opacity="1.000000" stroke="none" 
	d="
M104.625000,0.999999 
	C104.031189,1.222306 103.062378,1.444613 102.046783,1.333460 
	C102.750000,1.000000 103.500000,1.000000 104.625000,0.999999 
z"/>
<path fill="#FCFDFE" opacity="1.000000" stroke="none" 
	d="
M95.666672,1.000000 
	C95.766777,1.517804 95.533554,2.035609 95.300331,2.553416 
	C94.888748,2.235639 94.477158,1.917860 94.032791,1.300041 
	C94.444443,1.000000 94.888893,1.000000 95.666672,1.000000 
z"/>
<path fill="#FCFDFE" opacity="1.000000" stroke="none" 
	d="
M1.000001,69.250000 
	C1.107299,69.269005 1.214597,69.538017 1.160947,69.903511 
	C1.000000,70.000000 1.000000,69.500000 1.000001,69.250000 
z"/>
<path fill="#FCFDFE" opacity="1.000000" stroke="none" 
	d="
M675.000000,74.749992 
	C674.893555,74.730347 674.787109,74.460709 674.840332,74.095535 
	C675.000000,74.000000 675.000000,74.500000 675.000000,74.749992 
z"/>
<path fill="#FDFFFD" opacity="1.000000" stroke="none" 
	d="
M405.344788,136.967560 
	C406.388397,136.223679 407.432037,135.479797 408.960999,134.444763 
	C409.972351,133.790512 410.498413,133.427383 411.490387,133.102539 
	C421.646851,133.067505 431.337402,132.994202 441.489746,132.994614 
	C460.632416,133.020035 479.313202,132.971741 498.285400,133.104736 
	C505.080811,137.686005 505.641327,141.061722 500.852478,147.107712 
	C496.731384,152.310608 492.568756,157.480820 488.474060,162.704315 
	C478.246887,175.750809 468.047882,188.819366 457.837585,201.879089 
	C457.837585,201.879089 457.948730,201.973694 457.598145,202.029922 
	C436.597656,227.711609 415.913574,253.309601 395.319153,278.979584 
	C389.303802,286.477448 383.543945,294.180267 377.666962,301.789154 
	C377.666962,301.789154 377.788818,301.803955 377.451813,301.882629 
	C373.557281,306.324097 369.891479,310.605896 366.521057,315.108765 
	C365.716034,316.184357 365.148254,318.488556 365.742218,319.392639 
	C370.183563,326.152618 374.944122,332.702881 379.604675,339.318848 
	C379.604675,339.318848 379.640930,338.999786 379.683411,339.498413 
	C388.726654,353.156738 397.698120,366.336670 406.751831,379.459869 
	C408.669128,382.239044 410.887115,384.810760 412.966614,387.478027 
	C414.550171,390.114594 416.133728,392.751160 417.867828,396.051819 
	C425.299103,407.651978 432.540466,418.614441 439.868195,429.518921 
	C459.618103,458.909058 479.418121,488.265564 499.164215,517.658264 
	C502.544159,522.689392 505.756378,527.833191 509.046082,532.924988 
	C508.509399,538.326599 506.491913,542.560547 499.777496,543.815674 
	C470.665588,543.958740 442.326141,543.986206 413.878418,543.898193 
	C413.539886,543.663025 413.356476,543.713501 412.872925,543.736450 
	C412.009613,543.436035 411.493347,543.333130 410.695251,543.031128 
	C408.754028,541.498535 406.675629,540.460022 405.498047,538.787292 
	C387.901825,513.793091 370.468445,488.684265 352.890289,463.677246 
	C348.148529,456.931549 343.052765,450.434692 338.119507,443.823608 
	C338.119507,443.823608 338.096069,443.928162 338.114929,443.559143 
	C334.502289,437.902740 330.870789,432.615326 327.239258,427.327942 
	C327.239258,427.327942 327.253723,427.117523 327.091736,426.712280 
	C317.380096,412.657349 307.830475,399.007721 297.888702,384.797577 
	C289.001434,395.928406 280.760803,406.249390 272.520172,416.570404 
	C272.520172,416.570404 272.503876,416.887146 272.285400,416.815094 
	C271.905396,417.034241 271.743866,417.325409 271.582336,417.616577 
	C271.582336,417.616577 271.551025,417.617188 271.240875,417.731201 
	C264.461304,423.398499 266.382599,430.981384 265.984741,438.482697 
	C265.911133,467.982086 265.917145,497.018066 265.872955,526.053955 
	C265.868958,528.694092 265.542633,531.333740 265.366028,533.973572 
	C262.992310,536.893372 260.618622,539.813171 257.614624,543.025757 
	C255.028809,543.512268 253.074539,543.859192 251.117645,543.874817 
	C239.087051,543.971008 227.055878,543.992432 214.675262,543.953613 
	C213.862549,543.966736 213.399429,544.065063 212.472321,544.137817 
	C203.332748,544.152405 194.657196,544.192627 185.681122,544.028442 
	C177.434219,543.174866 173.961227,537.851501 172.012299,530.519287 
	C172.072067,403.268677 172.081818,276.483734 172.116577,149.698776 
	C172.117294,147.046097 172.407394,144.393463 172.562485,141.740814 
	C175.540176,138.934006 178.517868,136.127182 182.174164,133.098114 
	C184.487640,132.701279 186.123260,132.368530 187.757324,132.375977 
	C210.159775,132.478165 232.562027,132.627258 254.964325,132.764847 
	C259.914581,134.356430 263.363892,137.489624 265.239990,143.238388 
	C265.640503,148.937653 265.885437,153.909470 265.893860,158.881683 
	C265.972534,205.245911 266.010620,251.610184 265.986481,298.392151 
	C266.901367,301.135468 263.979889,304.684113 268.523743,306.010712 
	C272.226624,305.199005 273.912781,303.188080 273.525757,299.615051 
	C273.566681,299.581909 273.605072,299.483887 273.963257,299.626007 
	C278.535248,297.381439 281.658875,294.208740 282.129517,288.828247 
	C282.358307,288.263916 282.605774,288.061951 283.212830,287.909485 
	C283.626923,287.526764 283.788055,287.225159 283.971436,286.959656 
	C283.993744,286.995758 283.924072,286.947327 284.271301,286.925049 
	C285.095612,285.962982 285.572693,285.023163 286.138702,283.849670 
	C286.427887,283.335815 286.689178,283.135010 287.362152,282.986816 
	C289.920013,281.298828 292.521149,279.970306 294.258942,277.912659 
	C299.062286,272.225189 303.593781,266.298889 308.026733,260.314423 
	C309.103363,258.860992 309.386169,256.819550 310.027069,255.031250 
	C310.020172,255.014008 310.046112,255.034058 310.419525,255.024628 
	C311.488922,253.969330 312.184875,252.923447 312.927917,251.943176 
	C312.974976,252.008774 312.864594,251.889954 313.215820,251.888626 
	C314.060150,250.951279 314.553284,250.015259 315.145020,248.852203 
	C315.413330,248.322296 315.662598,248.115280 316.365601,248.007675 
	C318.170044,246.023483 319.600403,244.035736 321.111694,241.776062 
	C321.696411,240.952026 322.200165,240.399933 323.110229,239.891663 
	C324.305054,238.582565 325.093567,237.229630 325.926697,235.928391 
	C325.971313,235.980103 325.853363,235.911240 326.198273,235.830627 
	C329.703186,232.574585 332.872955,229.408447 335.965271,226.168365 
	C336.040009,226.090057 335.251343,225.187729 334.992981,224.425354 
	C335.260925,224.062256 335.401245,223.943558 335.877899,223.764099 
	C336.451660,223.108307 336.689117,222.513275 336.961853,221.953827 
	C336.997070,221.989410 336.908356,221.943039 337.165833,221.857605 
	C337.569153,221.458389 337.715027,221.144608 337.894226,220.908234 
	C337.927551,220.985641 337.821808,220.854385 338.181152,220.858185 
	C339.031128,219.914963 339.521820,218.967957 340.005615,218.010803 
	C339.998779,218.000656 340.019196,218.012268 340.394958,218.011047 
	C341.538513,216.708191 342.306274,215.406555 343.041992,214.068710 
	C343.010010,214.032516 343.102478,214.060532 343.475525,214.043411 
	C344.493469,212.953857 345.138336,211.881424 345.790924,210.796844 
	C345.798615,210.784698 345.773956,210.761963 346.111450,210.722946 
	C350.338196,206.888809 354.433807,203.275681 358.017761,199.211349 
	C359.505768,197.523926 359.900757,194.872650 360.792786,192.659683 
	C360.792786,192.659683 360.902100,192.306259 361.384460,192.172653 
	C365.752869,189.257202 369.444519,186.329666 370.063080,181.099640 
	C370.063080,181.099640 370.005768,181.029007 370.414734,181.037003 
	C376.122406,178.127808 379.021790,173.373001 380.990295,167.643372 
	C381.192322,167.152435 381.403839,166.952499 382.086700,166.872803 
	C383.608551,165.201019 384.733551,163.487808 385.976105,161.462311 
	C392.510712,153.089188 398.927734,145.028381 405.344788,136.967560 
z"/>
<path fill="#357D33" opacity="1.000000" stroke="none" 
	d="
M101.219696,4.406714 
	C125.517693,4.109453 149.988480,3.977674 174.459274,3.975874 
	C306.325531,3.966174 438.191772,3.988741 570.524841,4.277483 
	C570.991638,4.554791 570.983337,4.984447 570.983337,4.984447 
	C570.983337,4.984447 570.991821,5.011064 570.526001,5.008019 
	C548.248657,5.003032 526.437073,4.997400 504.625458,4.999752 
	C370.759155,5.014184 236.892853,5.030424 103.026550,5.046062 
	C102.481865,4.908103 101.937180,4.770144 101.219696,4.406714 
z"/>
<path fill="#50B749" opacity="1.000000" stroke="none" 
	d="
M103.324234,5.332078 
	C236.892853,5.030424 370.759155,5.014184 504.625458,4.999752 
	C526.437073,4.997400 548.248657,5.003032 570.527832,5.021863 
	C569.259766,5.358898 567.524170,5.958892 565.788391,5.959387 
	C413.212128,6.002892 260.635834,6.001306 108.059563,5.984900 
	C106.580330,5.984742 105.101135,5.745643 103.324234,5.332078 
z"/>
<path fill="#509E4A" opacity="1.000000" stroke="none" 
	d="
M509.298859,532.717834 
	C505.756378,527.833191 502.544159,522.689392 499.164215,517.658264 
	C479.418121,488.265564 459.618103,458.909058 439.868195,429.518921 
	C432.540466,418.614441 425.299103,407.651978 418.026794,396.367371 
	C419.150330,396.301758 420.835327,396.214386 421.295532,396.922791 
	C429.020630,408.813263 436.493988,420.867676 444.250427,432.737213 
	C447.127533,437.139984 450.820190,441.007568 453.727997,445.393036 
	C457.742401,451.447540 461.279541,457.816284 465.188782,463.943512 
	C467.585968,467.700745 470.326599,471.237366 472.858002,474.910919 
	C475.256378,478.391449 477.590454,481.916473 479.935760,485.433289 
	C480.487091,486.260040 480.770630,487.415833 481.515411,487.939697 
	C488.284485,492.700806 489.831299,501.078491 494.977478,507.130951 
	C501.258087,514.517578 506.810822,522.841431 509.298859,532.717834 
z"/>
<path fill="#35802F" opacity="1.000000" stroke="none" 
	d="
M172.331436,141.465118 
	C172.407394,144.393463 172.117294,147.046097 172.116577,149.698776 
	C172.081818,276.483734 172.072067,403.268677 171.772675,530.564636 
	C171.485855,531.075623 171.003922,531.150024 171.003922,531.150024 
	C171.002594,403.155090 170.996292,275.160156 171.045685,147.165253 
	C171.046448,145.173187 171.733566,143.181366 172.331436,141.465118 
z"/>
<path fill="#509E4A" opacity="1.000000" stroke="none" 
	d="
M378.018555,301.743652 
	C383.543945,294.180267 389.303802,286.477448 395.319153,278.979584 
	C415.913574,253.309601 436.597656,227.711609 457.562378,201.966309 
	C454.960693,206.780670 452.485443,212.053772 449.019501,216.565903 
	C444.368622,222.620575 438.748291,227.920547 433.908173,233.842087 
	C424.997772,244.743301 416.350128,255.859283 407.598175,266.889893 
	C399.282990,277.369934 391.011078,287.884735 382.618988,298.302765 
	C381.508728,299.681061 379.801147,300.578186 378.018555,301.743652 
z"/>
<path fill="#509E4A" opacity="1.000000" stroke="none" 
	d="
M338.109009,444.199707 
	C343.052765,450.434692 348.148529,456.931549 352.890289,463.677246 
	C370.468445,488.684265 387.901825,513.793091 405.498047,538.787292 
	C406.675629,540.460022 408.754028,541.498535 410.721771,543.319092 
	C411.036133,544.191162 411.042175,544.576111 411.048218,544.961121 
	C401.817627,542.506165 400.112396,533.292847 395.123199,527.067017 
	C388.442749,518.730896 382.085266,510.131531 375.741180,501.532990 
	C373.949371,499.104431 372.861176,496.166229 371.152985,493.664764 
	C365.537750,485.441803 359.840515,477.273254 354.067657,469.160034 
	C350.175262,463.689636 345.955780,458.447632 342.175354,452.903809 
	C340.451843,450.376434 339.435547,447.366760 338.109009,444.199707 
z"/>
<path fill="#509E4A" opacity="1.000000" stroke="none" 
	d="
M458.196228,201.890152 
	C468.047882,188.819366 478.246887,175.750809 488.474060,162.704315 
	C492.568756,157.480820 496.731384,152.310608 500.852478,147.107712 
	C505.641327,141.061722 505.080811,137.686005 498.287598,132.867126 
	C497.998444,132.448242 498.004883,131.973099 498.002686,131.735138 
	C498.000458,131.497192 498.008667,131.021362 498.008667,131.021362 
	C507.228394,135.661179 508.033234,144.360687 500.989624,151.621078 
	C495.222809,157.565414 490.825043,164.821808 485.634918,171.349091 
	C483.323456,174.256104 480.399933,176.671295 478.027802,179.536240 
	C472.735504,185.928085 467.661621,192.500580 462.384277,198.905151 
	C461.377930,200.126419 459.844879,200.913712 458.196228,201.890152 
z"/>
<path fill="#509E4A" opacity="1.000000" stroke="none" 
	d="
M272.901001,416.607147 
	C280.760803,406.249390 289.001434,395.928406 297.888702,384.797577 
	C307.830475,399.007721 317.380096,412.657349 327.007141,426.649231 
	C325.342316,425.856659 323.054535,425.104034 321.947540,423.524078 
	C315.439697,414.236023 309.224243,404.743530 302.868591,395.348114 
	C301.489014,393.308716 299.939514,391.384308 297.770569,388.469208 
	C293.622223,393.800262 290.264160,399.226501 285.813507,403.520142 
	C281.440521,407.738861 279.297974,414.066254 272.901001,416.607147 
z"/>
<path fill="#32802E" opacity="1.000000" stroke="none" 
	d="
M266.060486,297.974457 
	C266.010620,251.610184 265.972534,205.245911 265.893860,158.881683 
	C265.885437,153.909470 265.640503,148.937653 265.435150,143.496948 
	C265.911346,144.944977 266.931366,146.860870 266.934753,148.778549 
	C267.022583,198.215332 267.004456,247.652298 266.765900,297.554504 
	C266.527100,298.019745 266.060486,297.974457 266.060486,297.974457 
z"/>
<path fill="#509E4A" opacity="1.000000" stroke="none" 
	d="
M412.965332,387.142700 
	C410.887115,384.810760 408.669128,382.239044 406.751831,379.459869 
	C397.698120,366.336670 388.726654,353.156738 379.651733,339.656555 
	C381.055450,340.273071 383.014221,340.899384 383.935242,342.239075 
	C391.598846,353.386627 399.121552,364.632416 406.571136,375.924835 
	C408.884705,379.431885 410.843048,383.173248 412.965332,387.142700 
z"/>
<path fill="#509E4A" opacity="1.000000" stroke="none" 
	d="
M379.725037,338.938965 
	C374.944122,332.702881 370.183563,326.152618 365.742218,319.392639 
	C365.148254,318.488556 365.716034,316.184357 366.521057,315.108765 
	C369.891479,310.605896 373.557281,306.324097 377.417358,301.831848 
	C375.788239,304.982513 374.109039,308.447388 371.872375,311.504364 
	C367.209595,317.877228 367.249756,319.148315 371.686493,325.303497 
	C374.712280,329.501312 377.146606,334.125519 379.725037,338.938965 
z"/>
<path fill="#2C8726" opacity="1.000000" stroke="none" 
	d="
M254.862335,132.420288 
	C232.562027,132.627258 210.159775,132.478165 187.757324,132.375977 
	C186.123260,132.368530 184.487640,132.701279 182.437775,132.867798 
	C183.109848,132.241501 184.196884,131.623260 186.116547,131.004822 
	C207.955475,130.991150 228.961777,130.977646 249.968063,130.964142 
	C251.565491,131.334686 253.162903,131.705200 254.862335,132.420288 
z"/>
<path fill="#32802E" opacity="1.000000" stroke="none" 
	d="
M265.767395,533.785278 
	C265.542633,531.333740 265.868958,528.694092 265.872955,526.053955 
	C265.917145,497.018066 265.911133,467.982086 266.225739,438.448242 
	C266.532745,437.950378 267.017334,437.903625 267.017334,437.903625 
	C267.012817,467.880157 267.023651,497.856750 266.968079,527.833191 
	C266.964508,529.754883 266.447144,531.675720 265.767395,533.785278 
z"/>
<path fill="#35802F" opacity="1.000000" stroke="none" 
	d="
M411.512054,544.964966 
	C411.042175,544.576111 411.036133,544.191162 411.003571,543.518188 
	C411.493347,543.333130 412.009613,543.436035 412.989380,543.810181 
	C413.452881,544.081360 413.727631,544.109680 413.727631,544.109680 
	C413.727631,544.109680 413.986664,544.013733 413.986664,544.013733 
	C442.326141,543.986206 470.665588,543.958740 499.461792,543.993408 
	C498.353882,544.369507 496.789703,544.954529 495.224518,544.957153 
	C467.475037,545.003174 439.725464,544.978333 411.512054,544.964966 
z"/>
<path fill="#509E4A" opacity="1.000000" stroke="none" 
	d="
M405.024414,136.984283 
	C398.927734,145.028381 392.510712,153.089188 385.686951,161.592285 
	C384.260773,163.086975 383.241272,164.139404 382.150360,165.128082 
	C382.078918,165.064331 381.938507,164.934158 381.938477,164.934143 
	C384.602783,160.900864 387.045288,156.696854 389.986420,152.876694 
	C393.830017,147.884354 398.035767,143.167618 402.172485,138.407776 
	C402.767761,137.722824 403.848145,137.459473 405.024414,136.984283 
z"/>
<path fill="#D8F8D4" opacity="1.000000" stroke="none" 
	d="
M310.033966,255.048492 
	C309.386169,256.819550 309.103363,258.860992 308.026733,260.314423 
	C303.593781,266.298889 299.062286,272.225189 294.258942,277.912659 
	C292.521149,279.970306 289.920013,281.298828 287.367645,282.655884 
	C287.736084,281.284180 288.449677,280.216705 289.163269,279.149231 
	C289.163300,279.149231 288.992798,279.030914 289.351685,278.969360 
	C290.265320,278.082397 290.820038,277.256958 291.374786,276.431549 
	C291.374786,276.431549 291.365875,276.349121 291.701080,276.266754 
	C292.738586,275.154999 293.440887,274.125580 294.143188,273.096191 
	C294.143188,273.096191 294.056915,273.013489 294.386902,272.937683 
	C295.875610,271.239258 297.034363,269.616638 298.193115,267.994019 
	C300.685211,264.971497 303.177368,261.948975 306.184906,258.571777 
	C306.874298,257.849213 307.048279,257.481354 307.222290,257.113495 
	C307.222290,257.113495 307.126587,257.145966 307.443970,257.058350 
	C308.518890,256.329956 309.276428,255.689224 310.033966,255.048492 
z"/>
<path fill="#50B749" opacity="1.000000" stroke="none" 
	d="
M249.674164,130.673798 
	C228.961777,130.977646 207.955475,130.991150 186.482681,130.988800 
	C187.243256,130.648590 188.469513,130.045303 189.697556,130.041641 
	C208.948059,129.984116 228.198761,130.000244 247.449417,130.021774 
	C248.093155,130.022491 248.736649,130.257599 249.674164,130.673798 
z"/>
<path fill="#D8F8D4" opacity="1.000000" stroke="none" 
	d="
M360.479156,192.784973 
	C359.900757,194.872650 359.505768,197.523926 358.017761,199.211349 
	C354.433807,203.275681 350.338196,206.888809 346.178925,210.423569 
	C345.951965,209.769226 345.995056,209.375229 346.038147,208.981247 
	C350.747284,203.624252 355.456390,198.267258 360.479156,192.784973 
z"/>
<path fill="#357D33" opacity="1.000000" stroke="none" 
	d="
M498.004883,131.973099 
	C498.004883,131.973099 497.998444,132.448242 497.996216,132.685852 
	C479.313202,132.971741 460.632416,133.020035 441.477600,132.763672 
	C441.003632,132.459015 441.001221,131.996552 441.001221,131.996552 
	C441.174622,131.988297 441.348022,131.980057 442.244324,131.973663 
	C461.313141,131.974701 479.659027,131.973907 498.004883,131.973099 
z"/>
<path fill="#509E4A" opacity="1.000000" stroke="none" 
	d="
M610.361023,11.912324 
	C614.928589,13.402392 619.489807,15.268046 624.405884,17.179893 
	C624.760620,17.226088 624.794922,17.204857 625.005127,17.476017 
	C628.398315,19.583393 631.581177,21.419611 634.764099,23.255829 
	C634.764099,23.255827 634.778870,23.288025 634.768188,23.304470 
	C635.121765,23.701174 635.485962,24.081434 635.975098,24.697668 
	C633.514893,23.962729 630.810669,23.224632 628.368286,21.975002 
	C622.300110,18.870285 616.351440,15.532240 610.361023,11.912324 
z"/>
<path fill="#50B749" opacity="1.000000" stroke="none" 
	d="
M498.002686,131.735138 
	C479.659027,131.973907 461.313141,131.974701 442.503967,131.953873 
	C443.774139,131.621704 445.506561,131.048325 447.241211,131.041382 
	C463.850433,130.974976 480.460052,131.004288 497.539124,131.013733 
	C498.008667,131.021362 498.000458,131.497192 498.002686,131.735138 
z"/>
<path fill="#2C8726" opacity="1.000000" stroke="none" 
	d="
M185.981628,544.232788 
	C194.657196,544.192627 203.332748,544.152405 212.475708,544.351929 
	C212.943100,544.591614 212.988068,545.017578 212.988068,545.017578 
	C209.284576,545.339417 205.583893,545.883789 201.876953,545.930542 
	C196.448044,545.999023 191.014633,545.710999 185.495544,545.225220 
	C185.720139,544.769348 185.911362,544.555054 185.981628,544.232788 
z"/>
<path fill="#63AF5D" opacity="1.000000" stroke="none" 
	d="
M185.681122,544.028442 
	C185.911362,544.555054 185.720139,544.769348 185.192230,544.937866 
	C176.329590,544.845825 171.147949,540.003174 171.019348,531.560242 
	C171.003922,531.150024 171.485855,531.075623 171.725464,531.030273 
	C173.961227,537.851501 177.434219,543.174866 185.681122,544.028442 
z"/>
<path fill="#479743" opacity="1.000000" stroke="none" 
	d="
M40.228123,24.899565 
	C46.240093,21.140097 52.653820,17.425684 59.437897,13.680365 
	C55.531364,16.703253 51.354164,19.913321 46.929619,22.735628 
	C45.103172,23.900673 42.745785,24.233362 40.228123,24.899565 
z"/>
<path fill="#479743" opacity="1.000000" stroke="none" 
	d="
M571.408691,4.997372 
	C570.983337,4.984447 570.991638,4.554791 570.984619,4.340036 
	C573.035217,4.078722 575.092896,4.032163 577.591125,3.941369 
	C578.443481,4.043267 578.855225,4.189401 579.597839,4.277442 
	C586.525513,5.575655 593.122314,6.931961 599.914368,8.609879 
	C590.684387,7.624427 581.259216,6.317361 571.408691,4.997372 
z"/>
<path fill="#35802F" opacity="1.000000" stroke="none" 
	d="
M215.024887,544.038757 
	C227.055878,543.992432 239.087051,543.971008 251.117645,543.874817 
	C253.074539,543.859192 255.028809,543.512268 257.454590,543.286255 
	C256.217010,543.834229 254.514801,544.897217 252.800308,544.917419 
	C240.491898,545.062439 228.180954,544.995483 215.409744,544.755493 
	C214.948669,544.515015 215.024887,544.038757 215.024887,544.038757 
z"/>
<path fill="#509E4A" opacity="1.000000" stroke="none" 
	d="
M267.015045,437.489685 
	C267.017334,437.903625 266.532745,437.950378 266.291748,437.984833 
	C266.382599,430.981384 264.461304,423.398499 271.236877,417.716095 
	C271.525879,418.373627 271.656555,419.197754 271.468109,419.941010 
	C270.017883,425.661438 268.505707,431.366180 267.015045,437.489685 
z"/>
<path fill="#509E4A" opacity="1.000000" stroke="none" 
	d="
M327.175659,427.743927 
	C330.870789,432.615326 334.502289,437.902740 338.168152,443.552734 
	C332.198883,440.287292 329.841003,434.092987 327.175659,427.743927 
z"/>
<path fill="#509E4A" opacity="1.000000" stroke="none" 
	d="
M288.788879,279.104614 
	C288.449677,280.216705 287.736084,281.284180 287.016968,282.682617 
	C286.689178,283.135010 286.427887,283.335815 285.833923,283.964355 
	C284.934845,285.190948 284.429474,286.069122 283.924072,286.947327 
	C283.924072,286.947327 283.993744,286.995758 283.718445,287.041321 
	C283.282043,287.388123 283.120972,287.689392 282.959869,287.990631 
	C282.605774,288.061951 282.358307,288.263916 281.827118,288.930695 
	C280.469147,290.372650 279.501495,291.480438 278.397308,292.438171 
	C278.260773,292.288086 277.987152,291.988403 277.987152,291.988403 
	C281.507446,287.714844 281.197388,280.351898 288.788879,279.104614 
z"/>
<path fill="#509E4A" opacity="1.000000" stroke="none" 
	d="
M265.986481,298.392151 
	C266.060486,297.974457 266.527100,298.019745 266.761414,298.025024 
	C267.468140,298.879120 267.940521,299.727905 268.121094,300.052368 
	C270.010559,299.266846 271.593933,298.608582 273.583313,297.968597 
	C273.989380,297.986908 274.085266,298.073792 274.031494,298.318420 
	C273.822388,298.857422 273.698181,299.164368 273.605072,299.483887 
	C273.605072,299.483887 273.566681,299.581909 273.261505,299.772095 
	C271.359039,301.978241 269.761749,303.994202 268.164490,306.010193 
	C263.979889,304.684113 266.901367,301.135468 265.986481,298.392151 
z"/>
<path fill="#509E4A" opacity="1.000000" stroke="none" 
	d="
M667.859497,610.161682 
	C665.411560,615.109009 662.602661,620.041870 659.471375,625.084106 
	C661.932190,620.178101 664.715332,615.162659 667.859497,610.161682 
z"/>
<path fill="#D8F8D4" opacity="1.000000" stroke="none" 
	d="
M380.925293,167.855530 
	C379.021790,173.373001 376.122406,178.127808 370.458008,181.051102 
	C372.691437,177.677887 375.290588,174.298569 378.236755,170.463745 
	C378.759430,169.684448 378.935089,169.360657 379.110748,169.036865 
	C379.110748,169.036865 379.027771,169.040756 379.300903,168.939240 
	C380.024445,168.510315 380.474884,168.182922 380.925293,167.855530 
z"/>
<path fill="#479743" opacity="1.000000" stroke="none" 
	d="
M440.532501,131.989532 
	C441.001221,131.996552 441.003632,132.459015 441.015778,132.689957 
	C431.337402,132.994202 421.646851,133.067505 411.471619,132.842438 
	C410.978302,132.370438 410.969696,132.196793 410.961121,132.023163 
	C420.662018,132.009613 430.362885,131.996078 440.532501,131.989532 
z"/>
<path fill="#509E4A" opacity="1.000000" stroke="none" 
	d="
M315.991486,248.004120 
	C315.662598,248.115280 315.413330,248.322296 314.879700,248.917389 
	C314.088684,249.542191 313.661652,249.874802 313.162415,250.142624 
	C313.090240,250.077835 312.946716,249.947357 312.946716,249.947357 
	C316.096375,245.728683 319.246033,241.510025 322.858093,237.301697 
	C323.320465,237.312027 323.646301,237.629593 323.520874,237.904404 
	C323.164948,238.735413 322.934448,239.291611 322.703949,239.847824 
	C322.200165,240.399933 321.696411,240.952026 320.804871,241.898315 
	C318.941895,244.196365 317.466675,246.100250 315.991486,248.004120 
z"/>
<path fill="#D8F8D4" opacity="1.000000" stroke="none" 
	d="
M369.758057,181.228775 
	C369.444519,186.329666 365.752869,189.257202 361.517090,192.043747 
	C363.929291,188.484924 366.691162,184.921417 369.758057,181.228775 
z"/>
<path fill="#479743" opacity="1.000000" stroke="none" 
	d="
M29.876022,641.836670 
	C27.158276,639.478882 24.461771,636.745239 21.682083,633.687134 
	C25.239321,635.166138 29.353321,636.484192 29.876022,641.836670 
z"/>
<path fill="#479743" opacity="1.000000" stroke="none" 
	d="
M25.880337,37.517265 
	C25.769428,36.818844 26.011421,36.297806 26.339298,35.492771 
	C26.710678,35.203030 26.930286,35.079807 27.461843,34.542171 
	C29.704247,32.667648 31.568817,31.090065 33.577934,29.636932 
	C33.722477,29.761387 34.011452,30.010422 34.011452,30.010422 
	C33.647373,34.827747 29.521240,35.837009 25.880337,37.517265 
z"/>
<path fill="#509E4A" opacity="1.000000" stroke="none" 
	d="
M335.541626,223.824860 
	C335.401245,223.943558 335.260925,224.062256 334.755066,224.497147 
	C333.790680,225.432220 333.191864,226.051102 332.444885,226.502991 
	C332.296722,226.335999 331.999786,226.002609 331.999786,226.002609 
	C333.759918,223.685806 335.520050,221.369003 337.687683,219.066895 
	C338.095154,219.081604 338.224731,219.202835 338.143860,219.476685 
	C337.982605,220.118469 337.902222,220.486435 337.821808,220.854385 
	C337.821808,220.854385 337.927551,220.985641 337.644073,221.000214 
	C337.209839,221.324203 337.059113,221.633621 336.908356,221.943039 
	C336.908356,221.943039 336.997070,221.989410 336.676025,222.081909 
	C336.083862,222.724548 335.812744,223.274704 335.541626,223.824860 
z"/>
<path fill="#509E4A" opacity="1.000000" stroke="none" 
	d="
M649.822388,637.122437 
	C648.239380,639.200562 646.276917,641.230469 644.033691,643.381958 
	C645.649658,641.360474 647.546326,639.217346 649.822388,637.122437 
z"/>
<path fill="#479743" opacity="1.000000" stroke="none" 
	d="
M16.943512,48.675484 
	C18.067606,46.357075 19.555656,44.142536 21.341328,41.795105 
	C20.195122,44.034592 18.751295,46.406971 16.943512,48.675484 
z"/>
<path fill="#479743" opacity="1.000000" stroke="none" 
	d="
M12.892824,54.603943 
	C13.646999,52.638317 14.795031,50.726452 16.254364,48.715271 
	C17.681984,51.828911 16.486345,53.787121 12.892824,54.603943 
z"/>
<path fill="#479743" opacity="1.000000" stroke="none" 
	d="
M36.551674,647.174927 
	C34.342266,645.953674 32.213379,644.362488 29.943321,642.462280 
	C33.497032,641.621521 35.249096,643.942383 36.551674,647.174927 
z"/>
<path fill="#479743" opacity="1.000000" stroke="none" 
	d="
M65.200668,11.804846 
	C67.264992,10.808567 69.739563,9.908397 72.579353,9.090417 
	C70.500023,10.082055 68.055473,10.991505 65.200668,11.804846 
z"/>
<path fill="#479743" opacity="1.000000" stroke="none" 
	d="
M34.253723,28.198145 
	C35.512730,27.408033 36.766651,26.596981 38.328598,25.702984 
	C37.334053,27.058107 36.031487,28.496170 34.370186,29.972328 
	C34.011452,30.010422 33.722477,29.761387 33.726387,29.423836 
	C33.896763,28.792339 34.063225,28.498394 34.229687,28.204447 
	C34.229687,28.204447 34.248638,28.177202 34.253723,28.198145 
z"/>
<path fill="#509E4A" opacity="1.000000" stroke="none" 
	d="
M636.075073,25.280506 
	C637.666199,26.020189 639.272461,27.140739 641.032227,28.551048 
	C638.464294,29.420420 636.640503,28.561403 636.075073,25.280506 
z"/>
<path fill="#479743" opacity="1.000000" stroke="none" 
	d="
M22.035690,41.742508 
	C22.689753,40.342766 23.747934,39.061058 25.088493,37.700443 
	C26.553885,40.528099 25.459425,41.859898 22.035690,41.742508 
z"/>
<path fill="#509E4A" opacity="1.000000" stroke="none" 
	d="
M297.820984,268.027008 
	C297.034363,269.616638 295.875610,271.239258 294.407501,272.993774 
	C295.215027,271.437103 296.331970,269.748566 297.820984,268.027008 
z"/>
<path fill="#509E4A" opacity="1.000000" stroke="none" 
	d="
M642.151001,30.142025 
	C643.490601,30.827702 644.798706,31.885599 646.246094,33.216236 
	C644.963501,32.497398 643.541504,31.505823 642.151001,30.142025 
z"/>
<path fill="#509E4A" opacity="1.000000" stroke="none" 
	d="
M338.941223,217.963196 
	C340.038879,216.324066 341.136536,214.684937 342.626648,213.028778 
	C343.019104,213.011765 343.111053,213.095764 343.082764,213.336731 
	C343.054443,213.577698 343.102478,214.060532 343.102478,214.060532 
	C343.102478,214.060532 343.010010,214.032516 342.762085,214.214478 
	C341.682526,215.601700 340.850861,216.806992 340.019196,218.012268 
	C340.019196,218.012268 339.998779,218.000656 339.781006,218.015839 
	C339.563232,218.031036 339.126526,218.137100 339.081451,218.092285 
	C339.036377,218.047470 338.941223,217.963196 338.941223,217.963196 
z"/>
<path fill="#509E4A" opacity="1.000000" stroke="none" 
	d="
M310.027069,255.031250 
	C309.276428,255.689224 308.518890,256.329956 307.484009,257.089111 
	C306.789215,254.865753 306.825073,252.828522 310.496277,252.937592 
	C310.923401,252.928650 310.991211,252.991913 310.896576,253.261414 
	C310.549988,254.031952 310.298035,254.533005 310.046082,255.034058 
	C310.046112,255.034058 310.020172,255.014008 310.027069,255.031250 
z"/>
<path fill="#509E4A" opacity="1.000000" stroke="none" 
	d="
M656.018555,629.200317 
	C655.296387,630.796997 654.220947,632.464172 652.857605,634.276489 
	C653.601562,632.704651 654.633484,630.987793 656.018555,629.200317 
z"/>
<path fill="#509E4A" opacity="1.000000" stroke="none" 
	d="
M380.990295,167.643372 
	C380.474884,168.182922 380.024445,168.510315 379.325867,168.972427 
	C379.778137,167.737900 380.478546,166.368652 381.558716,164.966797 
	C381.938507,164.934158 382.078918,165.064331 382.066040,165.404083 
	C381.932068,166.106354 381.810974,166.468872 381.689850,166.831375 
	C381.403839,166.952499 381.192322,167.152435 380.990295,167.643372 
z"/>
<path fill="#509E4A" opacity="1.000000" stroke="none" 
	d="
M325.944702,233.942932 
	C326.720184,232.649445 327.495667,231.355972 328.666138,230.056488 
	C329.061096,230.050461 329.155121,230.141708 329.090088,230.457916 
	C328.109802,231.927765 327.194519,233.081390 326.195068,234.162628 
	C326.110931,234.090210 325.944702,233.942932 325.944702,233.942932 
z"/>
<path fill="#509E4A" opacity="1.000000" stroke="none" 
	d="
M323.157593,237.153198 
	C323.735931,235.995132 324.477142,234.995865 325.581543,233.969772 
	C325.944702,233.942932 326.110931,234.090210 326.127075,234.444214 
	C326.046570,235.169220 325.949951,235.540222 325.853363,235.911240 
	C325.853363,235.911240 325.971313,235.980103 325.652863,236.020355 
	C324.771698,236.583603 324.209015,237.106598 323.646301,237.629593 
	C323.646301,237.629593 323.320465,237.312027 323.157593,237.153198 
z"/>
<path fill="#509E4A" opacity="1.000000" stroke="none" 
	d="
M345.700714,209.032242 
	C345.995056,209.375229 345.951965,209.769226 345.841431,210.462585 
	C345.773956,210.761963 345.798615,210.784698 345.520020,210.919434 
	C344.531281,211.734711 343.821167,212.415237 343.111053,213.095764 
	C343.111053,213.095764 343.019104,213.011765 342.973450,212.968155 
	C343.739624,211.644119 344.551453,210.363678 345.700714,209.032242 
z"/>
<path fill="#479743" opacity="1.000000" stroke="none" 
	d="
M8.949478,61.683441 
	C9.169830,60.246517 9.780398,58.784618 10.661152,57.108894 
	C10.400790,58.482864 9.870242,60.070663 8.949478,61.683441 
z"/>
<path fill="#509E4A" opacity="1.000000" stroke="none" 
	d="
M293.772675,273.095947 
	C293.440887,274.125580 292.738586,275.154999 291.741760,276.274719 
	C292.098907,275.275269 292.750549,274.185486 293.772675,273.095947 
z"/>
<path fill="#479743" opacity="1.000000" stroke="none" 
	d="
M60.150574,13.829431 
	C61.202465,13.045484 62.634274,12.341847 64.418655,11.612850 
	C63.357655,12.361572 61.944073,13.135656 60.150574,13.829431 
z"/>
<path fill="#479743" opacity="1.000000" stroke="none" 
	d="
M43.627132,652.112061 
	C42.692482,652.037537 41.778912,651.577637 40.716743,650.852417 
	C41.594830,650.966919 42.621521,651.346802 43.627132,652.112061 
z"/>
<path fill="#509E4A" opacity="1.000000" stroke="none" 
	d="
M273.941528,297.943359 
	C274.358063,296.961578 274.822449,296.023407 275.695068,295.084839 
	C276.103271,295.084442 276.252319,295.213257 276.163269,295.507538 
	C275.411224,296.559143 274.748260,297.316467 274.085266,298.073792 
	C274.085266,298.073792 273.989380,297.986908 273.941528,297.943359 
z"/>
<path fill="#509E4A" opacity="1.000000" stroke="none" 
	d="
M410.678436,132.042969 
	C410.969696,132.196793 410.978302,132.370438 411.005676,132.804169 
	C410.498413,133.427383 409.972351,133.790512 409.208649,134.149445 
	C409.445892,133.451080 409.920807,132.756912 410.678436,132.042969 
z"/>
<path fill="#509E4A" opacity="1.000000" stroke="none" 
	d="
M290.997925,276.332092 
	C290.820038,277.256958 290.265320,278.082397 289.430695,279.037109 
	C289.640869,278.188446 290.130951,277.210571 290.997925,276.332092 
z"/>
<path fill="#509E4A" opacity="1.000000" stroke="none" 
	d="
M658.821167,625.146667 
	C658.704712,626.087280 658.208740,627.036743 657.407227,628.124023 
	C657.548340,627.226379 657.994934,626.190918 658.821167,625.146667 
z"/>
<path fill="#509E4A" opacity="1.000000" stroke="none" 
	d="
M310.888306,252.898315 
	C311.331635,251.940857 311.809998,251.013733 312.617554,250.016983 
	C312.946716,249.947357 313.090240,250.077835 313.086884,250.421616 
	C313.010559,251.140244 312.937561,251.515106 312.864594,251.889954 
	C312.864594,251.889954 312.974976,252.008774 312.659119,252.014740 
	C311.892609,252.344437 311.441895,252.668167 310.991211,252.991913 
	C310.991211,252.991913 310.923401,252.928650 310.888306,252.898315 
z"/>
<path fill="#479743" opacity="1.000000" stroke="none" 
	d="
M11.246141,56.908051 
	C11.219651,56.238861 11.557533,55.539501 12.153419,54.718559 
	C12.144452,55.357281 11.877482,56.117580 11.246141,56.908051 
z"/>
<path fill="#479743" opacity="1.000000" stroke="none" 
	d="
M600.229736,9.179626 
	C601.247864,9.014180 602.478638,9.154671 603.906616,9.614914 
	C602.883362,9.784966 601.662842,9.635265 600.229736,9.179626 
z"/>
<path fill="#479743" opacity="1.000000" stroke="none" 
	d="
M40.592041,650.184814 
	C39.850876,650.201904 39.107658,649.859619 38.195503,649.251465 
	C38.881035,649.265503 39.735508,649.545410 40.592041,650.184814 
z"/>
<path fill="#479743" opacity="1.000000" stroke="none" 
	d="
M604.232239,10.187731 
	C604.984375,10.017365 605.956482,10.157125 607.171509,10.584068 
	C606.426941,10.746788 605.439636,10.622323 604.232239,10.187731 
z"/>
<path fill="#509E4A" opacity="1.000000" stroke="none" 
	d="
M20.774090,632.517883 
	C20.204050,631.911316 19.634010,631.304749 18.964138,630.397461 
	C19.453569,630.228210 20.042830,630.359680 20.770967,631.125000 
	C20.864594,632.011963 20.819340,632.264954 20.774090,632.517883 
z"/>
<path fill="#509E4A" opacity="1.000000" stroke="none" 
	d="
M649.045166,36.253998 
	C649.593140,36.438942 650.159546,36.934711 650.759888,37.714573 
	C650.217041,37.520718 649.640320,37.042774 649.045166,36.253998 
z"/>
<path fill="#509E4A" opacity="1.000000" stroke="none" 
	d="
M276.029602,295.019043 
	C276.139526,294.408691 276.323151,293.863708 276.934082,293.312042 
	C277.361389,293.305359 277.734985,293.624695 277.585846,293.855896 
	C277.041901,294.462463 276.647095,294.837860 276.252319,295.213257 
	C276.252319,295.213257 276.103271,295.084442 276.029602,295.019043 
z"/>
<path fill="#509E4A" opacity="1.000000" stroke="none" 
	d="
M651.219177,635.507935 
	C651.270447,636.033020 650.980652,636.502197 650.430176,637.085571 
	C650.405762,636.617126 650.641907,636.034607 651.219177,635.507935 
z"/>
<path fill="#479743" opacity="1.000000" stroke="none" 
	d="
M20.843243,632.723633 
	C20.819340,632.264954 20.864594,632.011963 20.953735,631.375793 
	C21.274775,631.564636 21.551924,632.136597 21.724968,633.040588 
	C21.304804,633.352600 21.068647,633.204834 20.843243,632.723633 
z"/>
<path fill="#509E4A" opacity="1.000000" stroke="none" 
	d="
M18.908354,629.795532 
	C18.492220,629.734131 18.078459,629.335510 17.599773,628.646240 
	C17.993473,628.723206 18.452099,629.090759 18.908354,629.795532 
z"/>
<path fill="#509E4A" opacity="1.000000" stroke="none" 
	d="
M329.961761,228.971939 
	C330.145050,228.423737 330.328339,227.875534 330.933746,227.308685 
	C331.355865,227.290024 331.711395,227.581436 331.565186,227.820160 
	C331.029388,228.451523 330.639832,228.844147 330.178650,229.170044 
	C330.106995,229.103317 329.961761,228.971939 329.961761,228.971939 
z"/>
<path fill="#509E4A" opacity="1.000000" stroke="none" 
	d="
M647.466675,34.851662 
	C647.971252,34.831028 648.420349,35.134731 648.961975,35.706268 
	C648.506714,35.708065 647.959045,35.442028 647.466675,34.851662 
z"/>
<path fill="#479743" opacity="1.000000" stroke="none" 
	d="
M37.971745,648.652832 
	C37.568455,648.665100 37.124367,648.353821 36.583763,647.784607 
	C36.968483,647.794189 37.449715,648.061829 37.971745,648.652832 
z"/>
<path fill="#479743" opacity="1.000000" stroke="none" 
	d="
M608.165894,11.186634 
	C608.605896,10.994205 609.227295,11.076557 610.034119,11.417240 
	C609.595459,11.604185 608.971375,11.532800 608.165894,11.186634 
z"/>
<path fill="#63AF5D" opacity="1.000000" stroke="none" 
	d="
M214.675262,543.953613 
	C215.024887,544.038757 214.948669,544.515015 214.936310,544.755859 
	C214.494278,544.993408 214.064575,544.990051 213.311478,545.002197 
	C212.988068,545.017578 212.943100,544.591614 212.939697,544.377502 
	C213.399429,544.065063 213.862549,543.966736 214.675262,543.953613 
z"/>
<path fill="#509E4A" opacity="1.000000" stroke="none" 
	d="
M331.178528,227.143829 
	C331.102631,226.675964 331.289856,226.416092 331.781311,226.110306 
	C331.999786,226.002609 332.296722,226.335999 332.318542,226.673813 
	C332.152893,227.226044 331.943237,227.415985 331.711395,227.581436 
	C331.711395,227.581436 331.355865,227.290024 331.178528,227.143829 
z"/>
<path fill="#509E4A" opacity="1.000000" stroke="none" 
	d="
M643.139893,643.543945 
	C643.392883,643.949036 643.245300,644.177612 642.783813,644.390625 
	C642.674011,644.112976 642.763794,643.777161 643.139893,643.543945 
z"/>
<path fill="#509E4A" opacity="1.000000" stroke="none" 
	d="
M329.016174,230.002808 
	C329.087524,229.647629 329.277313,229.395462 329.751221,229.085297 
	C329.961761,228.971939 330.106995,229.103317 330.068970,229.394516 
	C329.786621,229.929230 329.494690,230.081223 329.155121,230.141708 
	C329.155121,230.141708 329.061096,230.050461 329.016174,230.002808 
z"/>
<path fill="#509E4A" opacity="1.000000" stroke="none" 
	d="
M378.851074,169.160904 
	C378.935089,169.360657 378.759430,169.684448 378.334381,170.148849 
	C378.253784,169.954620 378.422577,169.619781 378.851074,169.160904 
z"/>
<path fill="#509E4A" opacity="1.000000" stroke="none" 
	d="
M652.144775,634.435547 
	C652.456482,634.816162 652.321411,635.086487 651.825806,635.364136 
	C651.685669,635.094116 651.763184,634.745422 652.144775,634.435547 
z"/>
<path fill="#509E4A" opacity="1.000000" stroke="none" 
	d="
M338.032135,219.019150 
	C338.083191,218.650620 338.269287,218.397507 338.734314,218.080292 
	C338.941223,217.963196 339.036377,218.047470 339.005859,218.325531 
	C338.807953,218.907074 338.557739,219.106827 338.224731,219.202835 
	C338.224731,219.202835 338.095154,219.081604 338.032135,219.019150 
z"/>
<path fill="#509E4A" opacity="1.000000" stroke="none" 
	d="
M641.187134,29.064980 
	C641.418701,28.975147 641.730530,29.156898 642.133118,29.604259 
	C641.905029,29.692102 641.586243,29.514332 641.187134,29.064980 
z"/>
<path fill="#509E4A" opacity="1.000000" stroke="none" 
	d="
M306.924500,257.230591 
	C307.048279,257.481354 306.874298,257.849213 306.415039,258.353271 
	C306.295441,258.108856 306.461090,257.728241 306.924500,257.230591 
z"/>
<path fill="#509E4A" opacity="1.000000" stroke="none" 
	d="
M277.175446,293.144714 
	C277.096039,292.666046 277.284393,292.407745 277.770874,292.098755 
	C277.987152,291.988403 278.260773,292.288086 278.286957,292.627411 
	C278.150360,293.212372 277.957642,293.431702 277.734985,293.624695 
	C277.734985,293.624695 277.361389,293.305359 277.175446,293.144714 
z"/>
<path fill="#509E4A" opacity="1.000000" stroke="none" 
	d="
M271.887695,417.621765 
	C271.743866,417.325409 271.905396,417.034241 272.308228,416.658783 
	C272.430756,416.925323 272.311920,417.276123 271.887695,417.621765 
z"/>
<path fill="#509E4A" opacity="1.000000" stroke="none" 
	d="
M646.387817,33.897919 
	C646.749878,33.613144 647.027893,33.754742 647.315369,34.247879 
	C647.049744,34.379700 646.709412,34.287991 646.387817,33.897919 
z"/>
<path fill="#479743" opacity="1.000000" stroke="none" 
	d="
M38.973721,25.724298 
	C38.907486,25.467989 39.129230,25.188683 39.626450,24.854303 
	C39.688515,25.099920 39.475105,25.400610 38.973721,25.724298 
z"/>
<path fill="#E8FDE7" opacity="1.000000" stroke="none" 
	d="
M634.817627,22.886213 
	C631.581177,21.419611 628.398315,19.583393 625.023193,17.467703 
	C629.561523,16.356945 632.773010,18.387974 634.817627,22.886213 
z"/>
<path fill="#E8FDE7" opacity="1.000000" stroke="none" 
	d="
M33.828995,28.132957 
	C34.063225,28.498394 33.896763,28.792339 33.581844,29.299381 
	C31.568817,31.090065 29.704247,32.667648 27.512486,34.353065 
	C27.543316,30.646889 28.870491,27.778345 33.828995,28.132957 
z"/>
<path fill="#D8F8D4" opacity="1.000000" stroke="none" 
	d="
M329.090088,230.457916 
	C329.494690,230.081223 329.786621,229.929230 330.140594,229.461243 
	C330.639832,228.844147 331.029388,228.451523 331.565186,227.820160 
	C331.943237,227.415985 332.152893,227.226044 332.466675,226.840805 
	C333.191864,226.051102 333.790680,225.432220 334.627441,224.741547 
	C335.251343,225.187729 336.040009,226.090057 335.965271,226.168365 
	C332.872955,229.408447 329.703186,232.574585 326.198273,235.830627 
	C325.949951,235.540222 326.046570,235.169220 326.211212,234.516617 
	C327.194519,233.081390 328.109802,231.927765 329.090088,230.457916 
z"/>
<path fill="#D8F8D4" opacity="1.000000" stroke="none" 
	d="
M277.585846,293.855896 
	C277.957642,293.431702 278.150360,293.212372 278.423492,292.777466 
	C279.501495,291.480438 280.469147,290.372650 281.739166,289.162415 
	C281.658875,294.208740 278.535248,297.381439 273.963257,299.626007 
	C273.698181,299.164368 273.822388,298.857422 274.031494,298.318420 
	C274.748260,297.316467 275.411224,296.559143 276.163269,295.507538 
	C276.647095,294.837860 277.041901,294.462463 277.585846,293.855896 
z"/>
<path fill="#D8F8D4" opacity="1.000000" stroke="none" 
	d="
M268.523743,306.010712 
	C269.761749,303.994202 271.359039,301.978241 273.220581,299.805237 
	C273.912781,303.188080 272.226624,305.199005 268.523743,306.010712 
z"/>
<path fill="#D8F8D4" opacity="1.000000" stroke="none" 
	d="
M316.365601,248.007675 
	C317.466675,246.100250 318.941895,244.196365 320.723907,242.170227 
	C319.600403,244.035736 318.170044,246.023483 316.365601,248.007675 
z"/>
<path fill="#D8F8D4" opacity="1.000000" stroke="none" 
	d="
M382.086700,166.872803 
	C381.810974,166.468872 381.932068,166.106354 382.137512,165.467834 
	C383.241272,164.139404 384.260773,163.086975 385.569397,161.904572 
	C384.733551,163.487808 383.608551,165.201019 382.086700,166.872803 
z"/>
<path fill="#D8F8D4" opacity="1.000000" stroke="none" 
	d="
M323.520874,237.904404 
	C324.209015,237.106598 324.771698,236.583603 325.608276,235.968643 
	C325.093567,237.229630 324.305054,238.582565 323.110229,239.891663 
	C322.934448,239.291611 323.164948,238.735413 323.520874,237.904404 
z"/>
<path fill="#D8F8D4" opacity="1.000000" stroke="none" 
	d="
M340.394958,218.011047 
	C340.850861,216.806992 341.682526,215.601700 342.794098,214.250671 
	C342.306274,215.406555 341.538513,216.708191 340.394958,218.011047 
z"/>
<path fill="#D8F8D4" opacity="1.000000" stroke="none" 
	d="
M343.082764,213.336731 
	C343.821167,212.415237 344.531281,211.734711 345.512329,210.931580 
	C345.138336,211.881424 344.493469,212.953857 343.475525,214.043411 
	C343.102478,214.060532 343.054443,213.577698 343.082764,213.336731 
z"/>
<path fill="#D8F8D4" opacity="1.000000" stroke="none" 
	d="
M310.896576,253.261414 
	C311.441895,252.668167 311.892609,252.344437 312.612061,251.949127 
	C312.184875,252.923447 311.488922,253.969330 310.419495,255.024628 
	C310.298035,254.533005 310.549988,254.031952 310.896576,253.261414 
z"/>
<path fill="#D8F8D4" opacity="1.000000" stroke="none" 
	d="
M338.143860,219.476685 
	C338.557739,219.106827 338.807953,218.907074 339.050934,218.370331 
	C339.126526,218.137100 339.563232,218.031036 339.787842,218.025986 
	C339.521820,218.967957 339.031128,219.914963 338.181152,220.858185 
	C337.902222,220.486435 337.982605,220.118469 338.143860,219.476685 
z"/>
<path fill="#D8F8D4" opacity="1.000000" stroke="none" 
	d="
M284.271301,286.925049 
	C284.429474,286.069122 284.934845,285.190948 285.744995,284.198059 
	C285.572693,285.023163 285.095612,285.962982 284.271301,286.925049 
z"/>
<path fill="#D8F8D4" opacity="1.000000" stroke="none" 
	d="
M313.215820,251.888626 
	C312.937561,251.515106 313.010559,251.140244 313.159058,250.486404 
	C313.661652,249.874802 314.088684,249.542191 314.781067,249.144424 
	C314.553284,250.015259 314.060150,250.951279 313.215820,251.888626 
z"/>
<path fill="#D8F8D4" opacity="1.000000" stroke="none" 
	d="
M335.877930,223.764099 
	C335.812744,223.274704 336.083862,222.724548 336.640808,222.046326 
	C336.689117,222.513275 336.451660,223.108307 335.877930,223.764099 
z"/>
<path fill="#D8F8D4" opacity="1.000000" stroke="none" 
	d="
M337.165833,221.857605 
	C337.059113,221.633621 337.209839,221.324203 337.610748,220.922806 
	C337.715027,221.144608 337.569153,221.458389 337.165833,221.857605 
z"/>
<path fill="#D8F8D4" opacity="1.000000" stroke="none" 
	d="
M283.212830,287.909485 
	C283.120972,287.689392 283.282043,287.388123 283.696167,287.005249 
	C283.788055,287.225159 283.626923,287.526764 283.212830,287.909485 
z"/>
<path fill="#509E4A" opacity="1.000000" stroke="none" 
	d="
M413.878418,543.898193 
	C413.986664,544.013733 413.727631,544.109680 413.727631,544.109680 
	C413.727631,544.109680 413.452881,544.081360 413.336426,544.007690 
	C413.356476,543.713501 413.539886,543.663025 413.878418,543.898193 
z"/>
</svg>