<svg version="1.1" id="Layer_1" xmlns="http://www.w3.org/2000/svg" xmlns:xlink="http://www.w3.org/1999/xlink" x="0px" y="0px"
	 width="100%" viewBox="0 0 858 247" enable-background="new 0 0 858 247" xml:space="preserve">
<path fill="#FAF9F7" opacity="1.000000" stroke="none" 
	d="
M576.000000,248.000000 
	C384.043304,248.000000 192.586639,248.000000 1.064976,248.000000 
	C1.064976,165.728653 1.064976,83.457237 1.064976,1.092911 
	C287.000000,1.092911 573.000000,1.092911 858.967957,1.092911 
	C858.967957,83.413330 858.967957,165.706665 858.967957,248.000000 
	C764.790588,248.000000 670.645325,248.000000 576.000000,248.000000 
M186.042374,127.314201 
	C186.054306,126.599129 186.066238,125.884048 186.559784,124.564636 
	C189.472961,108.950409 192.282654,93.315315 195.422455,77.746803 
	C195.843124,75.660995 197.677185,73.654716 199.294403,72.053719 
	C204.435989,66.963722 209.784500,62.082737 215.626953,56.813911 
	C216.481674,55.589489 217.336411,54.365067 218.101624,53.100235 
	C218.101624,53.100235 218.115768,53.197418 218.643387,53.008713 
	C218.825562,52.690884 219.007751,52.373055 219.612885,51.918297 
	C219.880859,51.743690 220.030075,51.497196 220.689926,50.995319 
	C221.513321,50.038170 222.336700,49.081020 223.053909,48.061085 
	C223.053909,48.061085 223.112122,48.169842 223.813568,48.180008 
	C226.961578,50.704060 230.200531,53.124100 233.235443,55.777512 
	C237.378784,59.399990 242.230530,58.858433 243.536911,53.978714 
	C247.272568,40.024879 250.715790,25.987669 253.968369,11.912612 
	C254.972488,7.567492 252.485138,5.164114 248.030792,5.704822 
	C244.253372,6.163357 240.537399,7.137730 236.799316,7.908525 
	C225.254303,10.289114 213.680328,12.545809 202.199005,15.202365 
	C200.276627,15.647167 197.781754,17.589821 197.332336,19.306568 
	C196.886780,21.008650 198.253189,23.686480 199.620102,25.233889 
	C201.304688,27.140923 203.811417,28.321707 206.463608,30.073008 
	C206.908539,30.402060 207.353470,30.731110 207.921387,31.810717 
	C210.200256,33.610958 209.123459,35.096992 207.604645,36.738647 
	C203.425125,41.256271 199.563553,46.098022 195.105957,50.314426 
	C193.183090,52.133247 190.106750,53.716114 187.545593,53.729538 
	C147.420517,53.939762 107.293983,53.875774 67.167786,53.874931 
	C64.699776,53.874882 62.231773,53.874928 59.492294,53.874928 
	C57.930183,47.757248 56.367203,42.015110 55.015747,36.223618 
	C53.934139,31.588535 51.424583,29.027588 46.448620,28.795366 
	C42.642838,28.617752 38.873032,27.776960 35.070267,27.404028 
	C27.956127,26.706358 20.839836,25.856232 13.705226,25.595718 
	C7.767496,25.378908 3.813751,29.771261 3.793080,35.719067 
	C3.772128,41.747356 5.994457,43.660000 12.852357,44.190365 
	C19.642714,44.715508 26.403545,45.612568 33.184948,46.267609 
	C36.452179,46.583206 37.427357,48.639217 38.151192,51.521736 
	C46.359413,84.209236 54.623356,116.883209 63.068146,149.510132 
	C63.912048,152.770599 63.143810,154.187515 60.421570,155.854355 
	C54.076130,159.739700 49.755169,165.275040 47.972775,173.490265 
	C48.080132,176.796021 47.643574,180.230392 48.389488,183.385162 
	C51.531109,196.672440 61.618324,203.527603 77.234947,203.523743 
	C102.872040,203.517395 128.509140,203.558304 154.146240,203.582245 
	C159.135605,203.586914 164.154160,203.944046 169.105789,203.517639 
	C173.695587,203.122391 176.711227,200.369980 177.197601,195.496552 
	C177.768448,189.776932 175.663544,186.217438 170.538971,184.812332 
	C168.337128,184.208588 165.942627,184.120834 163.635178,184.117401 
	C135.665802,184.075897 107.696198,184.133072 79.727036,184.043961 
	C76.455063,184.033539 73.185387,183.301666 69.367111,182.269348 
	C68.687019,181.783615 68.006927,181.297882 67.396179,180.514282 
	C67.369804,180.278931 67.240868,180.135544 67.036293,180.015579 
	C67.036293,180.015579 66.971146,179.981247 66.961380,179.141678 
	C66.935310,177.757431 66.909233,176.373184 67.330612,174.354492 
	C68.817451,173.594101 70.243629,172.385315 71.804771,172.174088 
	C74.413475,171.821136 77.108421,172.119080 79.767059,172.119690 
	C109.515564,172.126572 139.264191,172.087814 169.012451,172.173965 
	C173.849564,172.187973 177.846191,170.985077 178.845764,165.811523 
	C181.201263,153.620239 183.215027,141.362915 185.243835,129.183548 
	C185.243835,129.183548 185.353027,129.260223 185.756882,128.963028 
	C185.771606,128.638855 185.786331,128.314697 186.042374,127.314201 
M281.606567,114.257523 
	C281.606567,114.257523 281.629974,114.284103 281.148834,114.183029 
	C281.148834,114.183029 280.676270,114.318748 280.153503,113.957100 
	C276.436737,114.008423 272.719971,114.059753 268.124268,113.901588 
	C267.415527,115.340958 266.098511,116.776520 266.089478,118.220268 
	C265.958374,139.160904 265.998291,160.102646 266.015381,181.044098 
	C266.016418,182.307388 266.169586,183.570541 266.295471,185.500870 
	C272.690247,184.981400 278.745392,184.489517 284.985992,183.076660 
	C284.987518,161.196579 284.968903,139.316452 285.018646,117.436478 
	C285.024200,114.991051 285.025177,112.949074 281.606567,114.257523 
M672.002136,84.250740 
	C665.834839,84.250740 659.667603,84.250740 653.328857,84.250740 
	C653.328857,117.686790 653.328857,151.328003 653.328857,184.847275 
	C655.348694,184.847275 657.174072,184.847275 659.822510,185.003525 
	C661.214355,184.951141 662.606140,184.898758 664.848389,184.992935 
	C667.642395,184.871292 671.003357,186.132599 672.892334,181.793564 
	C673.595581,179.215240 674.298767,176.636902 675.336914,172.830383 
	C676.633362,175.290070 677.251221,176.462326 677.750610,177.409698 
	C679.630676,176.144821 681.226562,175.071167 682.973877,174.914078 
	C682.973877,178.155304 682.973877,181.396515 682.973877,184.842789 
	C685.180359,184.842789 687.091125,184.842789 689.864502,184.994720 
	C691.909119,184.945160 693.953735,184.895599 696.843567,184.992538 
	C698.283386,184.992538 699.723206,184.992538 701.443420,184.992538 
	C701.443420,161.094345 701.443420,137.669327 701.443420,113.875969 
	C695.851074,113.875969 690.398376,113.766769 684.960754,114.002899 
	C684.212280,114.035408 683.538147,115.781387 682.027832,117.006058 
	C679.551086,117.999207 676.531006,118.775887 678.609619,122.474678 
	C681.335205,127.324554 680.488953,133.275040 675.548035,138.425995 
	C675.548035,136.438705 675.528320,135.147461 675.551392,133.856979 
	C675.677307,126.822868 677.189148,119.437897 675.511841,112.865906 
	C674.167725,107.599716 675.284119,104.776276 678.584412,101.406761 
	C680.351685,102.923050 682.064697,104.392815 683.597046,105.707535 
	C685.040039,104.582596 686.152344,103.715462 687.678101,102.842682 
	C689.147095,103.019005 690.611633,103.268990 692.085876,103.358490 
	C697.510681,103.687820 702.395264,100.093987 703.083252,95.322845 
	C703.914001,89.560707 701.114685,84.817955 695.943665,83.226662 
	C690.498047,81.550888 684.386292,83.968910 682.746033,89.090126 
	C681.880005,91.794250 682.400452,94.942444 681.679626,98.251556 
	C680.320740,99.938843 678.657471,100.831619 677.664795,98.234787 
	C676.472961,95.117043 676.019653,91.722801 674.926147,88.559044 
	C674.438171,87.147362 673.167908,86.006065 672.002136,84.250740 
M314.469666,143.436722 
	C317.070557,131.315704 321.081421,129.124664 338.871674,130.233139 
	C338.871674,124.468681 338.871674,118.717262 338.871674,112.822792 
	C328.236572,110.949417 320.356995,114.836716 313.930969,124.997711 
	C313.930969,120.221375 313.930969,117.033066 313.930969,114.133102 
	C307.633942,114.133102 301.893860,114.133102 296.332214,114.133102 
	C296.332214,137.827255 296.332214,161.229309 296.332214,184.840485 
	C301.771393,184.840485 306.889069,184.840485 312.878021,184.963348 
	C313.250031,183.538559 313.934418,182.116089 313.945068,180.688614 
	C314.035980,168.460602 314.004944,156.231659 314.469666,143.436722 
M464.867859,179.416183 
	C464.915283,179.945343 464.962708,180.474503 464.682556,181.610535 
	C463.801178,185.802139 466.501251,185.186401 469.744995,184.985016 
	C470.494476,184.936722 471.243958,184.888443 472.883362,184.997437 
	C475.590424,184.950638 478.297516,184.903824 481.879700,184.982895 
	C482.271088,184.386215 483.004608,183.789124 483.003906,183.192917 
	C482.984772,167.463821 482.889801,151.734818 482.964294,135.198914 
	C481.942596,125.099937 477.266174,117.406578 467.460327,114.016830 
	C455.817871,109.992203 445.691528,112.751770 437.361603,123.592102 
	C437.179169,119.602913 437.049377,116.764633 436.925934,114.065666 
	C430.765564,114.065666 425.023956,114.065666 419.113220,114.065666 
	C419.113220,137.782166 419.113220,161.282562 419.113220,184.690125 
	C425.249939,184.690125 431.146912,184.690125 437.157623,184.690125 
	C437.157623,171.061600 437.064270,157.758026 437.200684,144.456818 
	C437.260468,138.626633 438.760956,133.207779 444.124695,129.849426 
	C452.801727,124.416534 461.352814,128.193314 464.989075,139.936798 
	C465.033173,151.622894 465.077271,163.308990 464.939362,175.632339 
	C464.978607,176.724152 465.017822,177.815964 464.867859,179.416183 
M803.866577,140.286758 
	C803.814758,131.193359 803.762939,122.099960 803.892883,112.344490 
	C803.834900,111.894424 803.776917,111.444351 803.888123,110.071236 
	C803.888123,101.347328 803.888123,92.623421 803.888123,84.143211 
	C797.540283,84.143211 791.789001,84.143211 785.742188,84.143211 
	C785.742188,117.780785 785.742188,151.123779 785.742188,184.841461 
	C787.134460,184.841461 788.564636,184.841461 790.916199,185.006546 
	C795.205261,185.006546 799.494324,185.006546 804.432129,185.006546 
	C804.432129,174.131317 804.432129,163.652359 804.432129,151.526001 
	C807.062805,154.018814 808.679993,155.286514 809.977051,156.824234 
	C817.158569,165.338196 824.235535,173.940460 831.426636,182.446228 
	C832.318970,183.501740 833.652649,184.855972 834.821411,184.895294 
	C841.697937,185.126633 848.586243,185.009079 856.100708,185.009079 
	C846.950317,174.449142 838.350281,164.584747 829.819519,154.660828 
	C822.669189,146.342819 822.708679,146.315369 829.990540,138.053146 
	C836.835754,130.286285 843.671936,122.511467 851.212097,113.944824 
	C844.589600,113.944824 839.131409,113.681587 833.721130,114.075333 
	C831.578430,114.231262 828.972412,115.328476 827.553955,116.886314 
	C820.722839,124.388718 814.258362,132.223770 807.569458,139.858170 
	C806.665405,140.889954 805.899353,143.847321 803.866577,140.286758 
M566.171021,159.873535 
	C566.207703,162.585464 566.244446,165.297379 566.098267,168.918655 
	C566.111267,172.944550 566.124268,176.970444 565.963013,181.656876 
	C566.014343,182.105515 566.065674,182.554138 565.935059,183.767944 
	C566.955383,184.123825 567.975769,184.479706 569.911560,184.993027 
	C573.942993,184.940948 577.974365,184.888855 582.884460,184.984787 
	C583.594116,184.051971 584.913574,183.123520 584.920349,182.185654 
	C585.000000,171.064377 584.883728,159.941711 585.017822,148.244019 
	C586.151489,146.370712 587.285156,144.497391 588.791016,142.009079 
	C591.151123,144.720886 592.897339,146.662506 594.572937,148.663315 
	C603.960632,159.873123 613.323059,171.104218 622.722351,182.304276 
	C623.550659,183.291321 624.562683,184.858185 625.523621,184.884033 
	C633.356812,185.094727 641.198181,185.002594 650.062012,185.002594 
	C634.851013,167.886658 620.552551,151.710114 606.123657,135.650757 
	C603.816772,133.083191 603.415161,131.387589 606.001648,128.584015 
	C615.573669,118.208916 624.876160,107.584328 634.231567,97.010712 
	C637.888550,92.877571 641.417725,88.631325 645.493164,83.865837 
	C638.265686,83.865837 632.099854,83.657028 625.962769,83.985298 
	C623.962769,84.092262 621.464478,85.094872 620.177551,86.554771 
	C614.578186,92.906784 609.338501,99.576035 603.973816,106.134674 
	C597.876343,113.589134 591.784973,121.048523 585.319092,128.960770 
	C585.058044,127.447937 584.946106,126.799133 584.989197,125.332497 
	C584.989197,111.475731 584.989197,97.618973 584.989197,83.941521 
	C578.380554,83.941521 572.313965,83.941521 566.213440,83.941521 
	C566.213440,88.427689 566.213440,92.710419 566.057007,97.740005 
	C566.119812,98.495575 566.182617,99.251144 566.101440,100.904778 
	C566.187439,103.933502 566.273376,106.962227 566.163330,110.908821 
	C566.225037,116.275360 566.286743,121.641907 566.168579,127.825806 
	C566.227966,129.214020 566.287415,130.602249 566.151672,132.811691 
	C566.217712,134.210663 566.283752,135.609634 566.172607,137.661270 
	C566.231445,138.104294 566.290222,138.547318 566.153687,139.834167 
	C566.221191,141.558929 566.288696,143.283691 566.177124,145.921448 
	C566.242188,150.277725 566.307251,154.633987 566.171021,159.873535 
M344.063751,172.031387 
	C347.158508,179.078629 352.795624,183.383072 359.886169,185.492691 
	C371.484283,188.943344 382.042419,186.098801 392.007629,178.319305 
	C392.007629,180.925873 392.007629,182.819672 392.007629,184.734680 
	C397.793518,184.734680 403.203217,184.734680 408.729065,184.734680 
	C408.729065,169.162109 408.826141,153.869995 408.690247,138.579971 
	C408.616577,130.289963 405.236511,123.425667 398.592743,118.358635 
	C387.279755,109.730530 366.023895,110.317360 355.171509,119.520592 
	C350.883179,123.157272 348.039948,127.536865 348.002350,133.539154 
	C353.189117,134.291504 357.915558,134.977066 362.552582,135.649673 
	C368.009216,127.758919 375.572296,125.120934 383.715820,128.141708 
	C389.531342,130.298920 391.484528,133.768646 390.703491,140.623169 
	C380.398590,142.073547 369.967041,142.987656 359.787994,145.111725 
	C346.427338,147.899658 340.087494,158.982330 344.063751,172.031387 
M503.114349,146.408356 
	C493.373230,151.493729 489.409241,158.019073 490.650757,166.925568 
	C492.461273,179.913925 506.451447,189.437592 520.516052,186.467819 
	C526.906677,185.118423 532.934387,182.050385 538.953979,179.825775 
	C539.000427,180.882523 539.085022,182.809113 539.168091,184.701172 
	C544.926575,184.701172 550.323547,184.701172 555.806152,184.701172 
	C555.806152,169.414139 555.806213,154.447495 555.805847,139.480850 
	C555.805847,138.981262 555.817139,138.481003 555.796021,137.982208 
	C555.526428,131.609406 553.569336,125.979515 548.938904,121.354637 
	C537.697571,110.126717 515.213135,109.088036 503.091797,119.393410 
	C498.705231,123.122787 495.911041,127.784004 495.292328,133.724701 
	C500.601868,134.530365 505.642395,135.295197 510.559937,136.041382 
	C514.020325,128.797058 521.100037,125.514793 528.490601,127.438721 
	C536.176697,129.439590 538.640686,132.791489 538.111572,140.283310 
	C526.644714,142.224091 515.230774,144.155914 503.114349,146.408356 
M762.039734,183.676163 
	C771.264771,179.064011 776.843201,171.863342 778.288818,161.294800 
	C772.407593,160.135620 766.933105,159.056641 761.368164,157.959808 
	C761.020142,159.096756 760.756409,160.014496 760.459045,160.921204 
	C757.817444,168.975220 753.070984,172.510742 745.077271,172.387497 
	C737.267761,172.267090 731.699646,168.337830 730.157471,160.325150 
	C729.010864,154.367859 728.623779,148.013458 729.360840,142.015625 
	C730.087158,136.104568 732.705017,130.555923 739.182739,128.067337 
	C749.388611,124.146492 757.561401,128.266327 762.016907,139.957062 
	C767.267151,138.850815 772.546875,137.738373 777.884583,136.613708 
	C776.237000,126.951576 771.193604,120.237335 762.962646,116.159859 
	C742.997864,106.269470 713.820740,115.543350 710.843933,142.200073 
	C709.062927,158.147537 711.475281,172.621735 726.300842,181.888168 
	C737.416321,188.835709 749.339783,188.479416 762.039734,183.676163 
M217.667221,160.845306 
	C223.609695,168.007477 229.524628,175.192871 235.524307,182.306793 
	C236.427917,183.378235 237.704605,184.853378 238.847275,184.888519 
	C246.372269,185.119949 253.907852,185.007965 262.458344,185.007965 
	C246.446548,166.768311 231.239700,149.445618 215.761002,131.813232 
	C229.431107,116.019218 243.026413,100.311623 257.378052,83.730171 
	C250.215500,83.730171 244.423325,83.495300 238.667709,83.851334 
	C236.510452,83.984772 233.822220,84.932816 232.428574,86.466103 
	C224.263977,95.448898 216.399109,104.704628 208.457245,113.889168 
	C203.267487,119.890953 198.118591,125.928062 193.023392,131.865433 
	C201.283401,141.583786 209.241516,150.946930 217.667221,160.845306 
M137.879440,229.223785 
	C139.089462,237.621094 144.306580,242.981613 152.241409,243.980515 
	C159.778412,244.929352 166.975037,241.097015 169.693787,234.413101 
	C173.114960,226.002258 171.074738,219.089798 164.900101,213.356430 
	C159.851318,208.668457 153.660080,208.569275 147.710220,211.468796 
	C140.838913,214.817368 137.256989,220.454941 137.879440,229.223785 
M89.389671,242.185043 
	C100.257278,234.502625 100.934608,220.004059 90.770241,212.633209 
	C84.842842,208.334869 76.763397,209.078873 71.162209,214.438858 
	C65.155617,220.186737 64.109131,230.362671 68.541199,237.347534 
	C72.322876,243.307404 81.007851,246.515900 89.389671,242.185043 
M285.311584,97.360535 
	C285.580811,96.250084 286.041626,95.147560 286.087952,94.027885 
	C286.378845,86.998772 281.830902,82.617737 274.639923,82.899643 
	C268.403961,83.144119 264.248352,88.185272 264.971436,94.712082 
	C265.445831,98.994171 268.073090,101.722115 271.999573,102.782684 
	C277.243835,104.199181 281.839325,102.945457 285.311584,97.360535 
z"/>
<path fill="#24C22F" opacity="1.000000" stroke="none" 
	d="
M207.798416,31.060158 
	C207.353470,30.731110 206.908539,30.402060 206.184204,29.607475 
	C204.759796,28.000444 203.327316,27.026688 202.539566,25.676710 
	C201.454727,23.817617 200.292389,21.676622 200.283676,19.651577 
	C200.279175,18.603058 202.552841,16.903652 204.029434,16.589489 
	C218.101456,13.595498 232.197998,10.698919 246.344711,8.083842 
	C251.156677,7.194333 252.916656,9.318001 251.788086,14.113540 
	C248.868057,26.521399 245.850845,38.907722 242.717682,51.263401 
	C241.549240,55.871185 237.688416,56.832710 234.081482,53.530857 
	C232.000351,51.625751 230.214432,49.401264 228.172333,47.449520 
	C226.286224,45.646832 224.317657,44.578503 223.112122,48.169842 
	C223.112122,48.169842 223.053909,48.061085 222.745346,48.087395 
	C221.644699,49.135410 220.852631,50.157112 220.060547,51.178814 
	C220.030075,51.497196 219.880859,51.743690 219.137207,52.083832 
	C218.479614,52.565384 218.297699,52.881401 218.115768,53.197418 
	C218.115768,53.197418 218.101624,53.100235 217.794891,53.106522 
	C216.652878,54.064175 215.817612,55.015541 214.650543,56.030396 
	C210.419250,59.864326 207.137527,64.972244 202.488342,67.119690 
	C193.514740,71.264572 193.519653,79.133041 192.017090,86.649437 
	C189.661865,98.431015 187.377533,110.226776 185.042694,122.441795 
	C185.007294,124.574333 184.992371,126.281601 185.036224,128.317078 
	C185.181015,128.850266 185.267014,129.055252 185.353027,129.260223 
	C185.353027,129.260223 185.243835,129.183548 184.950134,129.303253 
	C182.455246,139.891953 180.157883,150.341919 178.083435,160.835968 
	C176.439743,169.150909 175.504471,170.047333 166.673859,169.691650 
	C165.735886,169.271118 165.092422,169.027649 164.448776,169.027161 
	C135.866196,169.005295 107.283569,168.992584 78.701073,169.043777 
	C77.473251,169.045975 76.246529,169.661423 74.590530,169.999054 
	C70.496338,170.122070 66.110573,169.056702 65.997131,174.994751 
	C65.999123,174.999603 65.991241,174.999817 65.723541,175.236023 
	C65.322815,176.650955 65.189789,177.829666 65.070251,179.261932 
	C65.712891,179.670715 66.342018,179.825974 66.971146,179.981247 
	C66.971146,179.981247 67.036293,180.015579 67.033379,180.187500 
	C67.075378,180.545609 67.174171,180.696518 67.326843,180.812149 
	C68.006927,181.297882 68.687019,181.783615 69.688934,182.928894 
	C71.957680,184.383728 73.901176,185.862289 75.852020,185.872055 
	C105.984985,186.022690 136.118942,185.964005 166.252579,186.004700 
	C171.328491,186.011566 176.028748,190.058319 175.961304,194.117966 
	C175.894928,198.114151 171.094757,202.011520 166.175568,202.012665 
	C136.374832,202.019592 106.567764,202.336426 76.778633,201.748260 
	C70.691666,201.628098 64.049149,199.120041 58.765171,195.902313 
	C50.525967,190.884995 49.411785,182.000946 50.099846,172.684631 
	C52.785763,166.365997 55.464703,160.340195 61.654877,157.269241 
	C65.587776,155.318161 65.599869,152.817474 64.615402,149.130112 
	C60.308418,132.998138 56.168690,116.820137 52.122581,100.620293 
	C47.871338,83.599159 43.909206,66.504539 39.478508,49.531372 
	C39.005402,47.718994 36.419277,45.520107 34.515335,45.182793 
	C26.552914,43.772114 18.458321,43.123337 10.458558,41.893562 
	C8.933899,41.659180 6.904779,40.366589 6.330782,39.035225 
	C3.775514,33.108406 9.627775,26.354353 16.093765,27.162832 
	C24.944988,28.269550 33.822361,29.232151 42.714176,29.929430 
	C50.398106,30.531990 52.452545,32.389473 54.111217,39.721508 
	C55.285961,44.914326 57.331123,49.910229 59.102585,55.217506 
	C59.485371,55.634865 59.753319,55.828743 60.317627,56.312267 
	C61.258282,56.731213 61.902527,56.973396 62.546886,56.973698 
	C104.129372,56.993210 145.711884,57.001472 187.294312,56.953850 
	C188.527527,56.952438 189.760040,56.345394 191.003357,55.775650 
	C191.013840,55.530575 191.032806,55.040344 191.398605,55.027405 
	C193.335602,54.181889 195.292847,53.697666 196.412155,52.457298 
	C201.655899,46.646450 206.668961,40.627453 212.131531,34.254524 
	C210.534119,33.076912 209.166275,32.068531 207.798416,31.060158 
M80.124352,104.984993 
	C77.652687,105.000107 75.181015,105.015221 72.709351,105.030342 
	C72.927460,105.398872 73.145576,105.767395 73.203545,106.936890 
	C73.690453,109.481300 74.419647,112.008202 74.605217,114.574402 
	C74.858223,118.073296 76.650780,119.413177 79.516975,119.691719 
	C78.678162,120.128670 77.839340,120.565628 77.596199,121.587112 
	C78.404808,121.723183 79.213326,121.977509 80.022049,121.978172 
	C105.776512,121.999397 131.531021,122.009453 157.285370,121.955063 
	C158.516525,121.952461 159.746399,121.347519 161.677277,121.068237 
	C164.076279,121.911079 166.269684,122.245941 166.979904,118.129417 
	C167.306717,114.117729 167.633530,110.106041 167.669922,105.556839 
	C167.107346,105.356880 166.544754,105.156914 165.379883,104.390266 
	C164.735611,104.263115 164.091431,104.025284 163.447052,104.024750 
	C137.201050,104.002930 110.955017,103.989349 84.709106,104.040459 
	C83.476997,104.042862 82.246048,104.645531 80.124352,104.984993 
M80.781593,138.648911 
	C80.438118,138.650375 80.094635,138.651840 79.751160,138.653320 
	C80.185883,138.778885 80.620605,138.904449 81.141006,139.867996 
	C81.836166,144.105225 82.531326,148.342453 83.555534,153.341553 
	C84.830864,153.565506 86.105896,153.982864 87.381561,153.984741 
	C111.158691,154.019913 134.935898,154.012054 158.713074,153.984238 
	C159.990479,153.982742 161.267593,153.726517 162.441833,153.599976 
	C162.998184,151.330017 163.701981,149.429214 163.881683,147.480103 
	C164.107788,145.027588 163.905334,142.535583 163.546936,139.504745 
	C163.021851,139.119507 162.496765,138.734268 161.640472,137.690140 
	C160.878571,137.460693 160.116943,137.031860 159.354706,137.030731 
	C134.979492,136.994385 110.604118,136.977066 86.229118,137.058350 
	C84.885330,137.062820 83.544441,137.937973 81.674736,138.825287 
	C81.463943,138.901718 81.253143,138.978134 80.781593,138.648911 
M67.964241,87.284500 
	C68.649094,87.523232 69.333740,87.970123 70.018837,87.970833 
	C103.014351,88.004799 136.009949,88.014847 169.005356,87.948021 
	C170.364517,87.945274 171.722122,87.180672 173.433884,86.145493 
	C174.981705,82.218872 177.239182,78.376312 174.601807,73.319267 
	C171.782303,73.204422 168.962936,72.993698 166.143295,72.989983 
	C144.523819,72.961494 122.903755,73.065033 101.285042,72.934105 
	C90.346336,72.867859 79.410652,72.361794 68.471458,72.193718 
	C67.667999,72.181366 66.847168,73.299919 65.423332,74.343651 
	C66.401810,78.493614 67.380280,82.643585 67.964241,87.284500 
z"/>
<path fill="#05110A" opacity="1.000000" stroke="none" 
	d="
M582.005798,184.836777 
	C577.974365,184.888855 573.942993,184.940948 569.395081,184.592621 
	C567.958069,183.795731 567.037598,183.399261 566.117065,183.002777 
	C566.065674,182.554138 566.014343,182.105515 566.432007,181.223022 
	C568.340881,176.449326 569.398499,172.128052 566.281128,168.009308 
	C566.244446,165.297379 566.207703,162.585464 566.629883,159.295609 
	C568.202576,154.075378 569.434753,149.426758 566.356201,145.008453 
	C566.288696,143.283691 566.221191,141.558929 566.507019,139.354126 
	C566.690186,138.252258 566.520020,137.630432 566.349731,137.008606 
	C566.283752,135.609634 566.217712,134.210663 566.569824,132.302856 
	C566.774780,130.198822 566.561584,128.603638 566.348389,127.008446 
	C566.286743,121.641907 566.225037,116.275360 566.613647,110.320679 
	C568.115784,106.379105 569.502808,102.997482 566.245361,100.006714 
	C566.182617,99.251144 566.119812,98.495575 566.509277,97.252899 
	C567.266296,96.393196 567.772827,96.055321 567.843872,95.642494 
	C568.381592,92.518120 567.801270,87.821503 569.577576,86.643867 
	C571.735718,85.213097 575.863525,86.993309 579.129639,86.925201 
	C582.282288,86.859474 583.083130,88.169662 583.046692,91.085442 
	C582.921936,101.055832 582.913025,111.030220 583.082397,120.999298 
	C583.111755,122.725731 584.222778,124.433784 584.834167,126.150330 
	C584.946106,126.799133 585.058044,127.447937 585.319092,128.960770 
	C591.784973,121.048523 597.876343,113.589134 603.973816,106.134674 
	C609.338501,99.576035 614.578186,92.906784 620.177551,86.554771 
	C621.464478,85.094872 623.962769,84.092262 625.962769,83.985298 
	C632.099854,83.657028 638.265686,83.865837 645.493164,83.865837 
	C641.417725,88.631325 637.888550,92.877571 634.231567,97.010712 
	C624.876160,107.584328 615.573669,118.208916 606.001648,128.584015 
	C603.415161,131.387589 603.816772,133.083191 606.123657,135.650757 
	C620.552551,151.710114 634.851013,167.886658 650.062012,185.002594 
	C641.198181,185.002594 633.356812,185.094727 625.523621,184.884033 
	C624.562683,184.858185 623.550659,183.291321 622.722351,182.304276 
	C613.323059,171.104218 603.960632,159.873123 594.572937,148.663315 
	C592.897339,146.662506 591.151123,144.720886 588.791016,142.009079 
	C587.285156,144.497391 586.151489,146.370712 584.502808,148.729736 
	C583.658569,151.259918 583.121155,153.295700 583.035400,155.350342 
	C582.625122,165.176346 582.337219,175.007477 582.005798,184.836777 
z"/>
<path fill="#08130C" opacity="1.000000" stroke="none" 
	d="
M344.012451,171.625916 
	C340.087494,158.982330 346.427338,147.899658 359.787994,145.111725 
	C369.967041,142.987656 380.398590,142.073547 390.703491,140.623169 
	C391.484528,133.768646 389.531342,130.298920 383.715820,128.141708 
	C375.572296,125.120934 368.009216,127.758919 362.552582,135.649673 
	C357.915558,134.977066 353.189117,134.291504 348.002350,133.539154 
	C348.039948,127.536865 350.883179,123.157272 355.171509,119.520592 
	C366.023895,110.317360 387.279755,109.730530 398.592743,118.358635 
	C405.236511,123.425667 408.616577,130.289963 408.690247,138.579971 
	C408.826141,153.869995 408.729065,169.162109 408.729065,184.734680 
	C403.203217,184.734680 397.793518,184.734680 392.007629,184.734680 
	C392.007629,182.819672 392.007629,180.925873 392.007629,178.319305 
	C382.042419,186.098801 371.484283,188.943344 359.886169,185.492691 
	C352.795624,183.383072 347.158508,179.078629 344.012451,171.625916 
M377.582336,172.334229 
	C387.886017,169.957703 392.380341,163.239655 390.727905,152.689453 
	C383.495087,153.463135 376.240540,154.078598 369.037537,155.069077 
	C364.629578,155.675201 361.304047,157.881729 360.790039,162.870300 
	C360.292908,167.695007 362.904755,170.582626 367.088623,171.751038 
	C370.187012,172.616287 373.577423,172.435699 377.582336,172.334229 
z"/>
<path fill="#07110B" opacity="1.000000" stroke="none" 
	d="
M503.465576,146.248047 
	C515.230774,144.155914 526.644714,142.224091 538.111572,140.283310 
	C538.640686,132.791489 536.176697,129.439590 528.490601,127.438721 
	C521.100037,125.514793 514.020325,128.797058 510.559937,136.041382 
	C505.642395,135.295197 500.601868,134.530365 495.292328,133.724701 
	C495.911041,127.784004 498.705231,123.122787 503.091797,119.393410 
	C515.213135,109.088036 537.697571,110.126717 548.938904,121.354637 
	C553.569336,125.979515 555.526428,131.609406 555.796021,137.982208 
	C555.817139,138.481003 555.805847,138.981262 555.805847,139.480850 
	C555.806213,154.447495 555.806152,169.414139 555.806152,184.701172 
	C550.323547,184.701172 544.926575,184.701172 539.168091,184.701172 
	C539.085022,182.809113 539.000427,180.882523 538.953979,179.825775 
	C532.934387,182.050385 526.906677,185.118423 520.516052,186.467819 
	C506.451447,189.437592 492.461273,179.913925 490.650757,166.925568 
	C489.409241,158.019073 493.373230,151.493729 503.465576,146.248047 
M531.330139,170.004471 
	C537.844849,164.865417 539.935852,159.230484 537.862610,152.614594 
	C530.614563,153.422272 523.363586,154.042023 516.177185,155.099976 
	C511.695282,155.759766 508.377228,158.435974 508.106873,163.222977 
	C507.849945,167.772156 510.694122,170.433472 514.851685,171.976196 
	C520.433472,174.047440 525.595093,172.772919 531.330139,170.004471 
M553.997925,157.498535 
	C553.997925,151.442673 553.997925,145.386810 553.997925,139.330948 
	C553.760742,139.341232 553.523499,139.351532 553.286316,139.361816 
	C553.286316,150.855103 553.286316,162.348389 553.286316,173.841660 
	C553.523438,173.843719 553.760498,173.845764 553.997620,173.847809 
	C553.997620,168.730804 553.997620,163.613800 553.997925,157.498535 
M553.913147,180.480957 
	C553.770752,180.244568 553.628357,180.008179 553.485962,179.771790 
	C553.354065,180.015686 553.062256,180.327667 553.129944,180.486542 
	C553.218262,180.694031 553.591248,180.780304 553.913147,180.480957 
z"/>
<path fill="#06110A" opacity="1.000000" stroke="none" 
	d="
M803.718933,110.994278 
	C803.776917,111.444351 803.834900,111.894424 803.455994,112.780724 
	C802.692749,113.747871 802.096680,114.270836 802.080811,114.810898 
	C801.851807,122.583717 801.624634,130.358887 801.629150,138.133331 
	C801.629700,139.086639 802.969910,140.039154 803.689209,140.992065 
	C805.899353,143.847321 806.665405,140.889954 807.569458,139.858170 
	C814.258362,132.223770 820.722839,124.388718 827.553955,116.886314 
	C828.972412,115.328476 831.578430,114.231262 833.721130,114.075333 
	C839.131409,113.681587 844.589600,113.944824 851.212097,113.944824 
	C843.671936,122.511467 836.835754,130.286285 829.990540,138.053146 
	C822.708679,146.315369 822.669189,146.342819 829.819519,154.660828 
	C838.350281,164.584747 846.950317,174.449142 856.100708,185.009079 
	C848.586243,185.009079 841.697937,185.126633 834.821411,184.895294 
	C833.652649,184.855972 832.318970,183.501740 831.426636,182.446228 
	C824.235535,173.940460 817.158569,165.338196 809.977051,156.824234 
	C808.679993,155.286514 807.062805,154.018814 804.432129,151.526001 
	C804.432129,163.652359 804.432129,174.131317 804.432129,185.006546 
	C799.494324,185.006546 795.205261,185.006546 790.371704,184.556519 
	C789.217834,182.137543 788.101562,180.174026 788.080444,178.198792 
	C787.929443,164.062851 788.001831,149.924500 788.002319,135.786926 
	C788.002808,119.260841 788.002441,102.734749 788.002441,87.001999 
	C792.776917,86.709999 797.207458,86.439026 802.000000,86.145920 
	C802.000000,92.800797 801.896545,99.596947 802.078308,106.385452 
	C802.119751,107.935257 803.145996,109.458694 803.718933,110.994278 
z"/>
<path fill="#06110B" opacity="1.000000" stroke="none" 
	d="
M481.004578,184.857025 
	C478.297516,184.903824 475.590424,184.950638 472.382751,184.603806 
	C470.923676,184.417435 469.965149,184.624695 469.006653,184.831970 
	C466.501251,185.186401 463.801178,185.802139 465.176636,181.241425 
	C465.466156,180.217453 465.261597,179.562622 465.057037,178.907776 
	C465.017822,177.815964 464.978607,176.724152 465.415741,175.209747 
	C466.239685,174.266068 466.886902,173.747131 466.890656,173.223557 
	C466.966858,162.625931 467.011108,152.027359 466.903809,141.430573 
	C466.895569,140.615509 465.714111,139.812332 465.077972,139.003647 
	C461.352814,128.193314 452.801727,124.416534 444.124695,129.849426 
	C438.760956,133.207779 437.260468,138.626633 437.200684,144.456818 
	C437.064270,157.758026 437.157623,171.061600 437.157623,184.690125 
	C431.146912,184.690125 425.249939,184.690125 419.113220,184.690125 
	C419.113220,161.282562 419.113220,137.782166 419.113220,114.065666 
	C425.023956,114.065666 430.765564,114.065666 436.925934,114.065666 
	C437.049377,116.764633 437.179169,119.602913 437.361603,123.592102 
	C445.691528,112.751770 455.817871,109.992203 467.460327,114.016830 
	C477.266174,117.406578 481.942596,125.099937 482.507080,135.715210 
	C481.699951,137.915543 481.055450,139.597992 481.046295,141.283875 
	C480.967377,155.807907 481.003082,170.332565 481.004578,184.857025 
z"/>
<path fill="#08130C" opacity="1.000000" stroke="none" 
	d="
M761.681213,183.809143 
	C749.339783,188.479416 737.416321,188.835709 726.300842,181.888168 
	C711.475281,172.621735 709.062927,158.147537 710.843933,142.200073 
	C713.820740,115.543350 742.997864,106.269470 762.962646,116.159859 
	C771.193604,120.237335 776.237000,126.951576 777.884583,136.613708 
	C772.546875,137.738373 767.267151,138.850815 762.016907,139.957062 
	C757.561401,128.266327 749.388611,124.146492 739.182739,128.067337 
	C732.705017,130.555923 730.087158,136.104568 729.360840,142.015625 
	C728.623779,148.013458 729.010864,154.367859 730.157471,160.325150 
	C731.699646,168.337830 737.267761,172.267090 745.077271,172.387497 
	C753.070984,172.510742 757.817444,168.975220 760.459045,160.921204 
	C760.756409,160.014496 761.020142,159.096756 761.368164,157.959808 
	C766.933105,159.056641 772.407593,160.135620 778.288818,161.294800 
	C776.843201,171.863342 771.264771,179.064011 761.681213,183.809143 
z"/>
<path fill="#08130C" opacity="1.000000" stroke="none" 
	d="
M217.433411,160.577698 
	C209.241516,150.946930 201.283401,141.583786 193.023392,131.865433 
	C198.118591,125.928062 203.267487,119.890953 208.457245,113.889168 
	C216.399109,104.704628 224.263977,95.448898 232.428574,86.466103 
	C233.822220,84.932816 236.510452,83.984772 238.667709,83.851334 
	C244.423325,83.495300 250.215500,83.730171 257.378052,83.730171 
	C243.026413,100.311623 229.431107,116.019218 215.761002,131.813232 
	C231.239700,149.445618 246.446548,166.768311 262.458344,185.007965 
	C253.907852,185.007965 246.372269,185.119949 238.847275,184.888519 
	C237.704605,184.853378 236.427917,183.378235 235.524307,182.306793 
	C229.524628,175.192871 223.609695,168.007477 217.433411,160.577698 
z"/>
<path fill="#08130D" opacity="1.000000" stroke="none" 
	d="
M312.006775,184.840485 
	C306.889069,184.840485 301.771393,184.840485 296.332214,184.840485 
	C296.332214,161.229309 296.332214,137.827255 296.332214,114.133102 
	C301.893860,114.133102 307.633942,114.133102 313.930969,114.133102 
	C313.930969,117.033066 313.930969,120.221375 313.930969,124.997711 
	C320.356995,114.836716 328.236572,110.949417 338.871674,112.822792 
	C338.871674,118.717262 338.871674,124.468681 338.871674,130.233139 
	C321.081421,129.124664 317.070557,131.315704 313.844360,143.813354 
	C312.811920,145.841232 312.065674,147.489685 312.052002,149.144211 
	C311.953552,161.042282 312.003754,172.941574 312.006775,184.840485 
z"/>
<path fill="#021007" opacity="1.000000" stroke="none" 
	d="
M663.997986,184.846375 
	C662.606140,184.898758 661.214355,184.951141 659.362183,184.574768 
	C657.697937,180.619446 655.834351,177.162949 655.450439,173.549255 
	C654.924500,168.598282 655.651672,163.527023 655.615295,158.508972 
	C655.455505,136.481812 655.157532,114.455330 655.121399,92.428276 
	C655.118835,90.846832 656.425049,88.543396 657.788330,87.805725 
	C663.316162,84.814651 669.236206,88.701225 669.591431,94.991188 
	C669.687622,96.694504 670.879578,98.335945 671.657227,100.466164 
	C671.674011,125.282295 671.602173,149.638046 671.155090,174.000000 
	C669.936035,174.352097 668.630920,174.468658 668.325928,175.082321 
	C666.742859,178.267181 665.414856,181.578873 663.997986,184.846375 
M670.515076,113.418777 
	C670.515076,113.418777 670.574829,113.522400 670.515076,113.418777 
z"/>
<path fill="#041109" opacity="1.000000" stroke="none" 
	d="
M284.800537,183.997620 
	C278.745392,184.489517 272.690247,184.981400 266.295471,185.500870 
	C266.169586,183.570541 266.016418,182.307388 266.015381,181.044098 
	C265.998291,160.102646 265.958374,139.160904 266.089478,118.220268 
	C266.098511,116.776520 267.415527,115.340958 268.572327,114.355614 
	C273.004517,116.992043 276.893738,116.922096 280.676270,114.318748 
	C280.676270,114.318748 281.148834,114.183029 281.239899,114.587372 
	C281.293182,115.599495 281.255402,116.207275 281.217651,116.815063 
	C281.477905,116.541542 281.738190,116.268028 282.292236,116.291916 
	C282.723999,118.398026 282.979034,120.206558 282.981781,122.015472 
	C283.010559,140.993469 282.953552,159.971802 283.076874,178.949051 
	C283.087830,180.635574 284.199890,182.314926 284.800537,183.997620 
z"/>
<path fill="#28BD33" opacity="1.000000" stroke="none" 
	d="
M137.849854,228.782501 
	C137.256989,220.454941 140.838913,214.817368 147.710220,211.468796 
	C153.660080,208.569275 159.851318,208.668457 164.900101,213.356430 
	C171.074738,219.089798 173.114960,226.002258 169.693787,234.413101 
	C166.975037,241.097015 159.778412,244.929352 152.241409,243.980515 
	C144.306580,242.981613 139.089462,237.621094 137.849854,228.782501 
z"/>
<path fill="#020F07" opacity="1.000000" stroke="none" 
	d="
M695.998352,184.846054 
	C693.953735,184.895599 691.909119,184.945160 689.421875,184.554901 
	C684.714172,179.657791 684.879944,174.144287 684.946167,168.496399 
	C685.110229,154.521103 685.065552,140.542038 684.953369,126.565727 
	C684.925720,123.122757 684.829712,119.946480 688.859558,118.609352 
	C690.880615,117.938728 693.848694,116.030991 694.682007,116.726685 
	C696.395508,118.157242 697.669434,120.901131 697.870300,123.213394 
	C698.552246,131.065567 698.743958,138.963303 699.009216,146.847443 
	C699.146179,150.917404 698.604370,155.054428 699.142456,159.057220 
	C700.181885,166.789017 701.506042,174.398178 696.766541,181.500946 
	C696.172852,182.390686 696.238281,183.720261 695.998352,184.846054 
z"/>
<path fill="#28BD32" opacity="1.000000" stroke="none" 
	d="
M89.061722,242.395248 
	C81.007851,246.515900 72.322876,243.307404 68.541199,237.347534 
	C64.109131,230.362671 65.155617,220.186737 71.162209,214.438858 
	C76.763397,209.078873 84.842842,208.334869 90.770241,212.633209 
	C100.934608,220.004059 100.257278,234.502625 89.061722,242.395248 
z"/>
<path fill="#FCFCFB" opacity="1.000000" stroke="none" 
	d="
M671.530396,173.993790 
	C671.602173,149.638046 671.674011,125.282295 671.773621,100.014053 
	C671.951904,94.315056 672.102356,89.528549 672.252747,84.742043 
	C673.167908,86.006065 674.438171,87.147362 674.926147,88.559044 
	C676.019653,91.722801 676.472961,95.117043 677.664795,98.234787 
	C678.657471,100.831619 680.320740,99.938843 682.311707,98.208321 
	C684.384033,99.726151 685.824341,101.287216 687.264587,102.848305 
	C686.152344,103.715462 685.040039,104.582596 683.597046,105.707535 
	C682.064697,104.392815 680.351685,102.923050 678.584412,101.406761 
	C675.284119,104.776276 674.167725,107.599716 675.511841,112.865906 
	C677.189148,119.437897 675.677307,126.822868 675.551392,133.856979 
	C675.528320,135.147461 675.548035,136.438705 675.548035,138.425995 
	C680.488953,133.275040 681.335205,127.324554 678.609619,122.474678 
	C676.531006,118.775887 679.551086,117.999207 682.501831,117.287582 
	C682.924683,136.378571 682.873596,155.188034 682.822510,173.997498 
	C681.226562,175.071167 679.630676,176.144821 677.750610,177.409698 
	C677.251221,176.462326 676.633362,175.290070 675.336914,172.830383 
	C674.298767,176.636902 673.595581,179.215240 672.433838,181.457520 
	C671.826965,178.745575 671.678650,176.369690 671.530396,173.993790 
M675.594727,99.803139 
	C675.209534,99.798843 674.824280,99.794548 674.439087,99.790253 
	C674.437439,99.950119 674.425049,100.248917 674.435852,100.249756 
	C674.819153,100.279526 675.204712,100.281410 675.594727,99.803139 
z"/>
<path fill="#39A53F" opacity="1.000000" stroke="none" 
	d="
M207.859894,31.435434 
	C209.166275,32.068531 210.534119,33.076912 212.131531,34.254524 
	C206.668961,40.627453 201.655899,46.646450 196.412155,52.457298 
	C195.292847,53.697666 193.335602,54.181889 190.926422,55.011734 
	C146.388199,55.004017 102.687965,54.999023 58.987740,54.994034 
	C57.331123,49.910229 55.285961,44.914326 54.111217,39.721508 
	C52.452545,32.389473 50.398106,30.531990 42.714176,29.929430 
	C33.822361,29.232151 24.944988,28.269550 16.093765,27.162832 
	C9.627775,26.354353 3.775514,33.108406 6.330782,39.035225 
	C6.904779,40.366589 8.933899,41.659180 10.458558,41.893562 
	C18.458321,43.123337 26.552914,43.772114 34.515335,45.182793 
	C36.419277,45.520107 39.005402,47.718994 39.478508,49.531372 
	C43.909206,66.504539 47.871338,83.599159 52.122581,100.620293 
	C56.168690,116.820137 60.308418,132.998138 64.615402,149.130112 
	C65.599869,152.817474 65.587776,155.318161 61.654877,157.269241 
	C55.464703,160.340195 52.785763,166.365997 49.744858,172.650696 
	C48.998894,172.909714 48.762325,172.882217 48.525761,172.854721 
	C49.755169,165.275040 54.076130,159.739700 60.421570,155.854355 
	C63.143810,154.187515 63.912048,152.770599 63.068146,149.510132 
	C54.623356,116.883209 46.359413,84.209236 38.151192,51.521736 
	C37.427357,48.639217 36.452179,46.583206 33.184948,46.267609 
	C26.403545,45.612568 19.642714,44.715508 12.852357,44.190365 
	C5.994457,43.660000 3.772128,41.747356 3.793080,35.719067 
	C3.813751,29.771261 7.767496,25.378908 13.705226,25.595718 
	C20.839836,25.856232 27.956127,26.706358 35.070267,27.404028 
	C38.873032,27.776960 42.642838,28.617752 46.448620,28.795366 
	C51.424583,29.027588 53.934139,31.588535 55.015747,36.223618 
	C56.367203,42.015110 57.930183,47.757248 59.492294,53.874928 
	C62.231773,53.874928 64.699776,53.874882 67.167786,53.874931 
	C107.293983,53.875774 147.420517,53.939762 187.545593,53.729538 
	C190.106750,53.716114 193.183090,52.133247 195.105957,50.314426 
	C199.563553,46.098022 203.425125,41.256271 207.604645,36.738647 
	C209.123459,35.096992 210.200256,33.610958 207.859894,31.435434 
z"/>
<path fill="#3BAA41" opacity="1.000000" stroke="none" 
	d="
M48.249268,173.172485 
	C48.762325,172.882217 48.998894,172.909714 49.590450,172.971161 
	C49.411785,182.000946 50.525967,190.884995 58.765171,195.902313 
	C64.049149,199.120041 70.691666,201.628098 76.778633,201.748260 
	C106.567764,202.336426 136.374832,202.019592 166.175568,202.012665 
	C171.094757,202.011520 175.894928,198.114151 175.961304,194.117966 
	C176.028748,190.058319 171.328491,186.011566 166.252579,186.004700 
	C136.118942,185.964005 105.984985,186.022690 75.852020,185.872055 
	C73.901176,185.862289 71.957680,184.383728 69.962708,183.246338 
	C73.185387,183.301666 76.455063,184.033539 79.727036,184.043961 
	C107.696198,184.133072 135.665802,184.075897 163.635178,184.117401 
	C165.942627,184.120834 168.337128,184.208588 170.538971,184.812332 
	C175.663544,186.217438 177.768448,189.776932 177.197601,195.496552 
	C176.711227,200.369980 173.695587,203.122391 169.105789,203.517639 
	C164.154160,203.944046 159.135605,203.586914 154.146240,203.582245 
	C128.509140,203.558304 102.872040,203.517395 77.234947,203.523743 
	C61.618324,203.527603 51.531109,196.672440 48.389488,183.385162 
	C47.643574,180.230392 48.080132,176.796021 48.249268,173.172485 
z"/>
<path fill="#080D09" opacity="1.000000" stroke="none" 
	d="
M682.898193,174.455780 
	C682.873596,155.188034 682.924683,136.378571 682.902710,117.151596 
	C683.538147,115.781387 684.212280,114.035408 684.960754,114.002899 
	C690.398376,113.766769 695.851074,113.875969 701.443420,113.875969 
	C701.443420,137.669327 701.443420,161.094345 701.443420,184.992538 
	C699.723206,184.992538 698.283386,184.992538 696.420959,184.919296 
	C696.238281,183.720261 696.172852,182.390686 696.766541,181.500946 
	C701.506042,174.398178 700.181885,166.789017 699.142456,159.057220 
	C698.604370,155.054428 699.146179,150.917404 699.009216,146.847443 
	C698.743958,138.963303 698.552246,131.065567 697.870300,123.213394 
	C697.669434,120.901131 696.395508,118.157242 694.682007,116.726685 
	C693.848694,116.030991 690.880615,117.938728 688.859558,118.609352 
	C684.829712,119.946480 684.925720,123.122757 684.953369,126.565727 
	C685.065552,140.542038 685.110229,154.521103 684.946167,168.496399 
	C684.879944,174.144287 684.714172,179.657791 688.990601,184.478943 
	C687.091125,184.842789 685.180359,184.842789 682.973877,184.842789 
	C682.973877,181.396515 682.973877,178.155304 682.898193,174.455780 
z"/>
<path fill="#0A130E" opacity="1.000000" stroke="none" 
	d="
M687.471313,102.845490 
	C685.824341,101.287216 684.384033,99.726151 682.619324,98.027618 
	C682.400452,94.942444 681.880005,91.794250 682.746033,89.090126 
	C684.386292,83.968910 690.498047,81.550888 695.943665,83.226662 
	C701.114685,84.817955 703.914001,89.560707 703.083252,95.322845 
	C702.395264,100.093987 697.510681,103.687820 692.085876,103.358490 
	C690.611633,103.268990 689.147095,103.019005 687.471313,102.845490 
z"/>
<path fill="#0A140E" opacity="1.000000" stroke="none" 
	d="
M285.138885,97.722198 
	C281.839325,102.945457 277.243835,104.199181 271.999573,102.782684 
	C268.073090,101.722115 265.445831,98.994171 264.971436,94.712082 
	C264.248352,88.185272 268.403961,83.144119 274.639923,82.899643 
	C281.830902,82.617737 286.378845,86.998772 286.087952,94.027885 
	C286.041626,95.147560 285.580811,96.250084 285.138885,97.722198 
z"/>
<path fill="#060B07" opacity="1.000000" stroke="none" 
	d="
M672.127441,84.496391 
	C672.102356,89.528549 671.951904,94.315056 671.685059,99.553673 
	C670.879578,98.335945 669.687622,96.694504 669.591431,94.991188 
	C669.236206,88.701225 663.316162,84.814651 657.788330,87.805725 
	C656.425049,88.543396 655.118835,90.846832 655.121399,92.428276 
	C655.157532,114.455330 655.455505,136.481812 655.615295,158.508972 
	C655.651672,163.527023 654.924500,168.598282 655.450439,173.549255 
	C655.834351,177.162949 657.697937,180.619446 658.950684,184.496643 
	C657.174072,184.847275 655.348694,184.847275 653.328857,184.847275 
	C653.328857,151.328003 653.328857,117.686790 653.328857,84.250740 
	C659.667603,84.250740 665.834839,84.250740 672.127441,84.496391 
z"/>
<path fill="#38A73E" opacity="1.000000" stroke="none" 
	d="
M223.462845,48.174927 
	C224.317657,44.578503 226.286224,45.646832 228.172333,47.449520 
	C230.214432,49.401264 232.000351,51.625751 234.081482,53.530857 
	C237.688416,56.832710 241.549240,55.871185 242.717682,51.263401 
	C245.850845,38.907722 248.868057,26.521399 251.788086,14.113540 
	C252.916656,9.318001 251.156677,7.194333 246.344711,8.083842 
	C232.197998,10.698919 218.101456,13.595498 204.029434,16.589489 
	C202.552841,16.903652 200.279175,18.603058 200.283676,19.651577 
	C200.292389,21.676622 201.454727,23.817617 202.539566,25.676710 
	C203.327316,27.026688 204.759796,28.000444 205.933838,29.479145 
	C203.811417,28.321707 201.304688,27.140923 199.620102,25.233889 
	C198.253189,23.686480 196.886780,21.008650 197.332336,19.306568 
	C197.781754,17.589821 200.276627,15.647167 202.199005,15.202365 
	C213.680328,12.545809 225.254303,10.289114 236.799316,7.908525 
	C240.537399,7.137730 244.253372,6.163357 248.030792,5.704822 
	C252.485138,5.164114 254.972488,7.567492 253.968369,11.912612 
	C250.715790,25.987669 247.272568,40.024879 243.536911,53.978714 
	C242.230530,58.858433 237.378784,59.399990 233.235443,55.777512 
	C230.200531,53.124100 226.961578,50.704060 223.462845,48.174927 
z"/>
<path fill="#030804" opacity="1.000000" stroke="none" 
	d="
M803.803528,110.532753 
	C803.145996,109.458694 802.119751,107.935257 802.078308,106.385452 
	C801.896545,99.596947 802.000000,92.800797 802.000000,86.145920 
	C797.207458,86.439026 792.776917,86.709999 788.002441,87.001999 
	C788.002441,102.734749 788.002808,119.260841 788.002319,135.786926 
	C788.001831,149.924500 787.929443,164.062851 788.080444,178.198792 
	C788.101562,180.174026 789.217834,182.137543 789.911011,184.473969 
	C788.564636,184.841461 787.134460,184.841461 785.742188,184.841461 
	C785.742188,151.123779 785.742188,117.780785 785.742188,84.143211 
	C791.789001,84.143211 797.540283,84.143211 803.888123,84.143211 
	C803.888123,92.623421 803.888123,101.347328 803.803528,110.532753 
z"/>
<path fill="#2FA334" opacity="1.000000" stroke="none" 
	d="
M65.995148,174.989914 
	C66.110573,169.056702 70.496338,170.122070 75.056908,170.002960 
	C106.290794,169.993393 136.629532,169.987747 166.968277,169.982086 
	C175.504471,170.047333 176.439743,169.150909 178.083435,160.835968 
	C180.157883,150.341919 182.455246,139.891953 185.011734,129.277634 
	C183.215027,141.362915 181.201263,153.620239 178.845764,165.811523 
	C177.846191,170.985077 173.849564,172.187973 169.012451,172.173965 
	C139.264191,172.087814 109.515564,172.126572 79.767059,172.119690 
	C77.108421,172.119080 74.413475,171.821136 71.804771,172.174088 
	C70.243629,172.385315 68.817451,173.594101 66.884888,174.667816 
	C66.439163,174.981155 65.995148,174.989914 65.995148,174.989914 
z"/>
<path fill="#36A83B" opacity="1.000000" stroke="none" 
	d="
M185.063171,122.016525 
	C187.377533,110.226776 189.661865,98.431015 192.017090,86.649437 
	C193.519653,79.133041 193.514740,71.264572 202.488342,67.119690 
	C207.137527,64.972244 210.419250,59.864326 214.665817,56.319252 
	C215.026245,56.736736 215.039642,56.928852 215.053040,57.120972 
	C209.784500,62.082737 204.435989,66.963722 199.294403,72.053719 
	C197.677185,73.654716 195.843124,75.660995 195.422455,77.746803 
	C192.282654,93.315315 189.472961,108.950409 186.285553,124.518906 
	C185.695267,123.654289 185.379227,122.835403 185.063171,122.016525 
z"/>
<path fill="#010602" opacity="1.000000" stroke="none" 
	d="
M584.911682,125.741409 
	C584.222778,124.433784 583.111755,122.725731 583.082397,120.999298 
	C582.913025,111.030220 582.921936,101.055832 583.046692,91.085442 
	C583.083130,88.169662 582.282288,86.859474 579.129639,86.925201 
	C575.863525,86.993309 571.735718,85.213097 569.577576,86.643867 
	C567.801270,87.821503 568.381592,92.518120 567.843872,95.642494 
	C567.772827,96.055321 567.266296,96.393196 566.587463,96.879471 
	C566.213440,92.710419 566.213440,88.427689 566.213440,83.941521 
	C572.313965,83.941521 578.380554,83.941521 584.989197,83.941521 
	C584.989197,97.618973 584.989197,111.475731 584.911682,125.741409 
z"/>
<path fill="#030804" opacity="1.000000" stroke="none" 
	d="
M284.893250,183.537140 
	C284.199890,182.314926 283.087830,180.635574 283.076874,178.949051 
	C282.953552,159.971802 283.010559,140.993469 282.981781,122.015472 
	C282.979034,120.206558 282.723999,118.398026 282.222504,115.835518 
	C281.790192,114.781654 281.721466,114.481583 281.652710,114.181503 
	C285.025177,112.949074 285.024200,114.991051 285.018646,117.436478 
	C284.968903,139.316452 284.987518,161.196579 284.893250,183.537140 
z"/>
<path fill="#010602" opacity="1.000000" stroke="none" 
	d="
M481.442139,184.919952 
	C481.003082,170.332565 480.967377,155.807907 481.046295,141.283875 
	C481.055450,139.597992 481.699951,137.915543 482.428833,136.118652 
	C482.889801,151.734818 482.984772,167.463821 483.003906,183.192917 
	C483.004608,183.789124 482.271088,184.386215 481.442139,184.919952 
z"/>
<path fill="#010602" opacity="1.000000" stroke="none" 
	d="
M312.442383,184.901917 
	C312.003754,172.941574 311.953552,161.042282 312.052002,149.144211 
	C312.065674,147.489685 312.811920,145.841232 313.614685,144.096497 
	C314.004944,156.231659 314.035980,168.460602 313.945068,180.688614 
	C313.934418,182.116089 313.250031,183.538559 312.442383,184.901917 
z"/>
<path fill="#010602" opacity="1.000000" stroke="none" 
	d="
M582.445129,184.910782 
	C582.337219,175.007477 582.625122,165.176346 583.035400,155.350342 
	C583.121155,153.295700 583.658569,151.259918 584.403320,149.017426 
	C584.883728,159.941711 585.000000,171.064377 584.920349,182.185654 
	C584.913574,183.123520 583.594116,184.051971 582.445129,184.910782 
z"/>
<path fill="#010602" opacity="1.000000" stroke="none" 
	d="
M465.033508,139.470215 
	C465.714111,139.812332 466.895569,140.615509 466.903809,141.430573 
	C467.011108,152.027359 466.966858,162.625931 466.890656,173.223557 
	C466.886902,173.747131 466.239685,174.266068 465.506714,174.891129 
	C465.077271,163.308990 465.033173,151.622894 465.033508,139.470215 
z"/>
<path fill="#060B07" opacity="1.000000" stroke="none" 
	d="
M671.155029,174.000000 
	C671.678650,176.369690 671.826965,178.745575 672.063843,181.560028 
	C671.003357,186.132599 667.642395,184.871292 664.423218,184.919662 
	C665.414856,181.578873 666.742859,178.267181 668.325928,175.082321 
	C668.630920,174.468658 669.936035,174.352097 671.155029,174.000000 
z"/>
<path fill="#030804" opacity="1.000000" stroke="none" 
	d="
M803.777893,140.639404 
	C802.969910,140.039154 801.629700,139.086639 801.629150,138.133331 
	C801.624634,130.358887 801.851807,122.583717 802.080811,114.810898 
	C802.096680,114.270836 802.692749,113.747871 803.365112,113.111755 
	C803.762939,122.099960 803.814758,131.193359 803.777893,140.639404 
z"/>
<path fill="#010602" opacity="1.000000" stroke="none" 
	d="
M566.266663,145.464951 
	C569.434753,149.426758 568.202576,154.075378 566.730469,158.853973 
	C566.307251,154.633987 566.242188,150.277725 566.266663,145.464951 
z"/>
<path fill="#010602" opacity="1.000000" stroke="none" 
	d="
M566.189697,168.463989 
	C569.398499,172.128052 568.340881,176.449326 566.519165,180.892746 
	C566.124268,176.970444 566.111267,172.944550 566.189697,168.463989 
z"/>
<path fill="#010602" opacity="1.000000" stroke="none" 
	d="
M280.414886,114.137924 
	C276.893738,116.922096 273.004517,116.992043 269.011810,114.460358 
	C272.719971,114.059753 276.436737,114.008423 280.414886,114.137924 
z"/>
<path fill="#010602" opacity="1.000000" stroke="none" 
	d="
M566.173462,100.455750 
	C569.502808,102.997482 568.115784,106.379105 566.711670,109.861740 
	C566.273376,106.962227 566.187439,103.933502 566.173462,100.455750 
z"/>
<path fill="#010602" opacity="1.000000" stroke="none" 
	d="
M566.258484,127.417130 
	C566.561584,128.603638 566.774780,130.198822 566.667419,131.892242 
	C566.287415,130.602249 566.227966,129.214020 566.258484,127.417130 
z"/>
<path fill="#38A73E" opacity="1.000000" stroke="none" 
	d="
M215.339996,56.967442 
	C215.039642,56.928852 215.026245,56.736736 214.997589,56.255764 
	C215.817612,55.015541 216.652878,54.064175 217.839630,53.126724 
	C217.336411,54.365067 216.481674,55.589489 215.339996,56.967442 
z"/>
<path fill="#38A73E" opacity="1.000000" stroke="none" 
	d="
M220.375244,51.087067 
	C220.852631,50.157112 221.644699,49.135410 222.798431,48.118786 
	C222.336700,49.081020 221.513321,50.038170 220.375244,51.087067 
z"/>
<path fill="#3BAA41" opacity="1.000000" stroke="none" 
	d="
M65.997131,174.994751 
	C65.995148,174.989914 66.439163,174.981155 66.661163,174.985046 
	C66.909233,176.373184 66.935310,177.757431 66.966263,179.561462 
	C66.342018,179.825974 65.712891,179.670715 65.318039,179.013153 
	C65.698631,177.340500 65.844940,176.170166 65.991241,174.999817 
	C65.991241,174.999817 65.999123,174.999603 65.997131,174.994751 
z"/>
<path fill="#2FA334" opacity="1.000000" stroke="none" 
	d="
M185.042694,122.441795 
	C185.379227,122.835403 185.695267,123.654289 186.044739,124.821075 
	C186.066238,125.884048 186.054306,126.599129 185.715820,127.650093 
	C185.389252,127.985985 184.977432,127.988869 184.977432,127.988869 
	C184.992371,126.281601 185.007294,124.574333 185.042694,122.441795 
z"/>
<path fill="#010602" opacity="1.000000" stroke="none" 
	d="
M566.026062,183.385361 
	C567.037598,183.399261 567.958069,183.795731 568.937378,184.513901 
	C567.975769,184.479706 566.955383,184.123825 566.026062,183.385361 
z"/>
<path fill="#010602" opacity="1.000000" stroke="none" 
	d="
M469.375824,184.908493 
	C469.965149,184.624695 470.923676,184.417435 471.937805,184.525177 
	C471.243958,184.888443 470.494476,184.936722 469.375824,184.908493 
z"/>
<path fill="#010602" opacity="1.000000" stroke="none" 
	d="
M464.962463,179.161987 
	C465.261597,179.562622 465.466156,180.217453 465.340424,180.937988 
	C464.962708,180.474503 464.915283,179.945343 464.962463,179.161987 
z"/>
<path fill="#010602" opacity="1.000000" stroke="none" 
	d="
M566.261230,137.334930 
	C566.520020,137.630432 566.690186,138.252258 566.604675,138.932220 
	C566.290222,138.547318 566.231445,138.104294 566.261230,137.334930 
z"/>
<path fill="#010602" opacity="1.000000" stroke="none" 
	d="
M281.629639,114.219513 
	C281.721466,114.481583 281.790192,114.781654 281.928711,115.538116 
	C281.738190,116.268028 281.477905,116.541542 281.217651,116.815063 
	C281.255402,116.207275 281.293182,115.599495 281.480469,114.637909 
	C281.629974,114.284103 281.606567,114.257523 281.629639,114.219513 
z"/>
<path fill="#36A83B" opacity="1.000000" stroke="none" 
	d="
M185.036224,128.317078 
	C184.977432,127.988869 185.389252,127.985985 185.595154,127.988258 
	C185.786331,128.314697 185.771606,128.638855 185.554962,129.111633 
	C185.267014,129.055252 185.181015,128.850266 185.036224,128.317078 
z"/>
<path fill="#3BAA41" opacity="1.000000" stroke="none" 
	d="
M67.361511,180.663208 
	C67.174171,180.696518 67.075378,180.545609 67.019913,180.221771 
	C67.240868,180.135544 67.369804,180.278931 67.361511,180.663208 
z"/>
<path fill="#38A73E" opacity="1.000000" stroke="none" 
	d="
M218.379578,53.103065 
	C218.297699,52.881401 218.479614,52.565384 218.925735,52.152298 
	C219.007751,52.373055 218.825562,52.690884 218.379578,53.103065 
z"/>
<path fill="#EBFAEB" opacity="1.000000" stroke="none" 
	d="
M174.874298,73.986183 
	C177.239182,78.376312 174.981705,82.218872 172.782654,86.424698 
	C137.540527,86.733788 102.949638,86.763664 68.358749,86.793549 
	C67.380280,82.643585 66.401810,78.493614 66.185516,74.212372 
	C102.923233,74.049454 138.898773,74.017822 174.874298,73.986183 
z"/>
<path fill="#EEFBED" opacity="1.000000" stroke="none" 
	d="
M167.960358,106.094353 
	C167.633530,110.106041 167.306717,114.117729 166.516479,118.584915 
	C164.892044,119.060005 163.731079,119.094467 162.570038,119.097015 
	C135.023895,119.157448 107.477745,119.214439 79.931602,119.272064 
	C76.650780,119.413177 74.858223,118.073296 74.605217,114.574402 
	C74.419647,112.008202 73.690453,109.481300 73.722427,106.586151 
	C105.480980,106.188393 136.720657,106.141373 167.960358,106.094353 
z"/>
<path fill="#F2FCF0" opacity="1.000000" stroke="none" 
	d="
M161.971680,138.349030 
	C162.496765,138.734268 163.021851,139.119507 163.485687,140.093628 
	C162.905563,143.736847 162.665329,146.879578 161.737640,149.804245 
	C161.338074,151.063919 159.516922,152.752151 158.337448,152.755417 
	C133.300827,152.824722 108.263603,152.681473 83.226494,152.579681 
	C82.531326,148.342453 81.836166,144.105225 81.067856,139.439774 
	C80.994705,139.011551 81.042343,139.054565 81.042343,139.054565 
	C81.253143,138.978134 81.463943,138.901718 82.370834,138.756668 
	C106.390594,138.717407 129.714264,138.762390 153.037933,138.756744 
	C156.015884,138.756027 158.993759,138.491394 161.971680,138.349030 
z"/>
<path fill="#12A51C" opacity="1.000000" stroke="none" 
	d="
M79.724289,119.481888 
	C107.477745,119.214439 135.023895,119.157448 162.570038,119.097015 
	C163.731079,119.094467 164.892044,119.060005 166.517517,118.980850 
	C166.269684,122.245941 164.076279,121.911079 160.861237,121.037323 
	C132.363647,121.005135 104.682083,121.003860 77.000519,121.002579 
	C77.839340,120.565628 78.678162,120.128670 79.724289,119.481888 
z"/>
<path fill="#20A829" opacity="1.000000" stroke="none" 
	d="
M161.806076,138.019592 
	C158.993759,138.491394 156.015884,138.756027 153.037933,138.756744 
	C129.714264,138.762390 106.390594,138.717407 82.634567,138.547943 
	C83.544441,137.937973 84.885330,137.062820 86.229118,137.058350 
	C110.604118,136.977066 134.979492,136.994385 159.354706,137.030731 
	C160.116943,137.031860 160.878571,137.460693 161.806076,138.019592 
z"/>
<path fill="#20A829" opacity="1.000000" stroke="none" 
	d="
M59.102585,55.217506 
	C102.687965,54.999023 146.388199,55.004017 190.560608,55.024673 
	C191.032806,55.040344 191.013840,55.530575 190.535645,55.770943 
	C146.712051,56.015079 103.366653,56.018848 60.021267,56.022621 
	C59.753319,55.828743 59.485371,55.634865 59.102585,55.217506 
z"/>
<path fill="#2BC937" opacity="1.000000" stroke="none" 
	d="
M60.317627,56.312267 
	C103.366653,56.018848 146.712051,56.015079 190.525162,56.016014 
	C189.760040,56.345394 188.527527,56.952438 187.294312,56.953850 
	C145.711884,57.001472 104.129372,56.993210 62.546886,56.973698 
	C61.902527,56.973396 61.258282,56.731213 60.317627,56.312267 
z"/>
<path fill="#379639" opacity="1.000000" stroke="none" 
	d="
M174.738052,73.652725 
	C138.898773,74.017822 102.923233,74.049454 66.491058,73.986893 
	C66.847168,73.299919 67.667999,72.181366 68.471458,72.193718 
	C79.410652,72.361794 90.346336,72.867859 101.285042,72.934105 
	C122.903755,73.065033 144.523819,72.961494 166.143295,72.989983 
	C168.962936,72.993698 171.782303,73.204422 174.738052,73.652725 
z"/>
<path fill="#1F9925" opacity="1.000000" stroke="none" 
	d="
M68.161499,87.039024 
	C102.949638,86.763664 137.540527,86.733788 172.605927,86.737457 
	C171.722122,87.180672 170.364517,87.945274 169.005356,87.948021 
	C136.009949,88.014847 103.014351,88.004799 70.018837,87.970833 
	C69.333740,87.970123 68.649094,87.523232 68.161499,87.039024 
z"/>
<path fill="#259C2C" opacity="1.000000" stroke="none" 
	d="
M83.391014,152.960617 
	C108.263603,152.681473 133.300827,152.824722 158.337448,152.755417 
	C159.516922,152.752151 161.338074,151.063919 161.737640,149.804245 
	C162.665329,146.879578 162.905563,143.736847 163.656128,140.371552 
	C163.905334,142.535583 164.107788,145.027588 163.881683,147.480103 
	C163.701981,149.429214 162.998184,151.330017 162.441833,153.599976 
	C161.267593,153.726517 159.990479,153.982742 158.713074,153.984238 
	C134.935898,154.012054 111.158691,154.019913 87.381561,153.984741 
	C86.105896,153.982864 84.830864,153.565506 83.391014,152.960617 
z"/>
<path fill="#259C2C" opacity="1.000000" stroke="none" 
	d="
M167.815125,105.825592 
	C136.720657,106.141373 105.480980,106.188393 73.802490,106.185669 
	C73.145576,105.767395 72.927460,105.398872 72.709351,105.030342 
	C75.181015,105.015221 77.652687,105.000107 81.036133,104.986542 
	C109.959343,104.977707 137.970764,104.967331 165.982178,104.956947 
	C166.544754,105.156914 167.107346,105.356880 167.815125,105.825592 
z"/>
<path fill="#2BC937" opacity="1.000000" stroke="none" 
	d="
M166.673859,169.691650 
	C136.629532,169.987747 106.290794,169.993393 75.485672,169.995132 
	C76.246529,169.661423 77.473251,169.045975 78.701073,169.043777 
	C107.283569,168.992584 135.866196,169.005295 164.448776,169.027161 
	C165.092422,169.027649 165.735886,169.271118 166.673859,169.691650 
z"/>
<path fill="#30C03A" opacity="1.000000" stroke="none" 
	d="
M165.681030,104.673607 
	C137.970764,104.967331 109.959343,104.977707 81.481247,104.978363 
	C82.246048,104.645531 83.476997,104.042862 84.709106,104.040459 
	C110.955017,103.989349 137.201050,104.002930 163.447052,104.024750 
	C164.091431,104.025284 164.735611,104.263115 165.681030,104.673607 
z"/>
<path fill="#2BC937" opacity="1.000000" stroke="none" 
	d="
M77.298355,121.294846 
	C104.682083,121.003860 132.363647,121.005135 160.511047,121.014748 
	C159.746399,121.347519 158.516525,121.952461 157.285370,121.955063 
	C131.531021,122.009453 105.776512,121.999397 80.022049,121.978172 
	C79.213326,121.977509 78.404808,121.723183 77.298355,121.294846 
z"/>
<path fill="#2FA334" opacity="1.000000" stroke="none" 
	d="
M65.723541,175.236023 
	C65.844940,176.170166 65.698631,177.340500 65.304535,178.759613 
	C65.189789,177.829666 65.322815,176.650955 65.723541,175.236023 
z"/>
<path fill="#20A829" opacity="1.000000" stroke="none" 
	d="
M81.025017,139.020782 
	C80.620605,138.904449 80.185883,138.778885 79.751160,138.653320 
	C80.094635,138.651840 80.438118,138.650375 80.911972,138.851746 
	C81.042343,139.054565 80.994705,139.011551 81.025017,139.020782 
z"/>
<path fill="#F5F5F3" opacity="1.000000" stroke="none" 
	d="
M377.210022,172.527618 
	C373.577423,172.435699 370.187012,172.616287 367.088623,171.751038 
	C362.904755,170.582626 360.292908,167.695007 360.790039,162.870300 
	C361.304047,157.881729 364.629578,155.675201 369.037537,155.069077 
	C376.240540,154.078598 383.495087,153.463135 390.727722,152.687256 
	C392.380341,163.239655 387.886017,169.957703 377.210022,172.527618 
z"/>
<path fill="#F4F4F2" opacity="1.000000" stroke="none" 
	d="
M531.011169,170.207825 
	C525.595093,172.772919 520.433472,174.047440 514.851685,171.976196 
	C510.694122,170.433472 507.849945,167.772156 508.106873,163.222977 
	C508.377228,158.435974 511.695282,155.759766 516.177185,155.099976 
	C523.363586,154.042023 530.614563,153.422272 537.862610,152.614594 
	C539.935852,159.230484 537.844849,164.865417 531.011169,170.207825 
z"/>
<path fill="#0A140E" opacity="1.000000" stroke="none" 
	d="
M553.997803,157.997665 
	C553.997620,163.613800 553.997620,168.730804 553.997620,173.847809 
	C553.760498,173.845764 553.523438,173.843719 553.286316,173.841660 
	C553.286316,162.348389 553.286316,150.855103 553.286316,139.361816 
	C553.523499,139.351532 553.760742,139.341232 553.997925,139.330948 
	C553.997925,145.386810 553.997925,151.442673 553.997803,157.997665 
z"/>
<path fill="#0A140E" opacity="1.000000" stroke="none" 
	d="
M553.877441,180.699844 
	C553.591248,180.780304 553.218262,180.694031 553.129944,180.486542 
	C553.062256,180.327667 553.354065,180.015686 553.485962,179.771790 
	C553.628357,180.008179 553.770752,180.244568 553.877441,180.699844 
z"/>
<path fill="#060B07" opacity="1.000000" stroke="none" 
	d="
M670.544922,113.470589 
	C670.574829,113.522400 670.515076,113.418777 670.544922,113.470589 
z"/>
<path fill="#FAF9F7" opacity="1.000000" stroke="none" 
	d="
M675.592285,100.045166 
	C675.204712,100.281410 674.819153,100.279526 674.435852,100.249756 
	C674.425049,100.248917 674.437439,99.950119 674.439087,99.790253 
	C674.824280,99.794548 675.209534,99.798843 675.592285,100.045166 
z"/>
</svg>